<?xml version="1.0" encoding="UTF-8"?> <svg xmlns="http://www.w3.org/2000/svg" viewBox="0 0 435 493.2"> <g fill="#231F20"> <path d="M.7 104.6l8.8-10.1c2.5-2.9 5.2-4.3 7.9-4.3 2.1 0 4.1.8 5.9 2.4 2 1.7 2.8 4.4 2.8 6.6 1-.4 2.1-.6 3.2-.6 2.3 0 4.6.8 6.3 2.4 4.8 4.2 4.8 10.1 0 15.6l-9.2 10.5L.7 104.6zm26.6 13l3.3-3.8c2.9-3.3 1.6-5.8-.1-7.2-1-.9-2-1.3-3.1-1.3-1.4 0-2.7.8-4 2.3l-3.3 3.8 7.2 6.2zm-11.4-10l3-3.4c1.8-2.1 1.8-4.1-.1-5.7-.8-.7-1.7-1.1-2.5-1.1-1.1 0-2.2.6-3.2 1.8l-3 3.4 5.8 5z"></path> <path d="M17.5 90.7c2 0 3.9.9 5.6 2.3 1.9 1.7 2.8 4.7 2.6 7 1.2-.6 2.5-.8 3.7-.8 2.2 0 4.3.8 6 2.2 4 3.5 5.2 8.9 0 14.9l-8.9 10.1-25-21.9 8.5-9.7c2.5-2.9 5-4.1 7.5-4.1m-1.6 17.6l3.3-3.8c2.2-2.5 1.7-4.8-.1-6.4-.9-.7-1.8-1.2-2.8-1.2-1.2 0-2.4.6-3.6 1.9l-3.3 3.8 6.5 5.7m11.5 10l3.6-4.2c2.8-3.2 2.1-5.9-.1-7.9-1-.9-2.2-1.4-3.4-1.4-1.4 0-2.9.7-4.4 2.4l-3.6 4.2 7.9 6.9m-9.9-28.6c-2.9 0-5.7 1.5-8.3 4.5l-8.5 9.7-.7.8.8.7 25 21.9.8.7.7-.8 8.9-10.1c5-5.8 5-11.9 0-16.3-1.8-1.6-4.2-2.5-6.7-2.5-.9 0-1.8.1-2.7.4-.2-2.1-1.1-4.6-2.9-6.3-2.1-1.8-4.3-2.7-6.4-2.7zm-6.7 12.8l2.7-3c.9-1.1 1.9-1.6 2.8-1.6.7 0 1.5.3 2.2.9 1.7 1.4 1.7 3.1 0 5l-2.7 3-5-4.3zm10.1 8.8l3-3.4c1.2-1.4 2.4-2.1 3.6-2.1.9 0 1.8.4 2.7 1.2 2.1 1.9 2.1 4 0 6.5l-3 3.4-6.3-5.6zM57.28 95.174l-5.782 5.234L28.48 74.982l5.782-5.235z"></path> <path d="M34.3 70.4l22.3 24.7-5 4.5L29.3 75l5-4.6m0-1.4l-.7.7-5 4.5-.7.7.7.7 22.3 24.7.7.7.7-.7 5-4.5.7-.7-.7-.7L35 69.8l-.7-.8zM47.3 58.6l11.1-7.8c2.6-1.8 5.1-2.7 7.5-2.7 3.2 0 6.1 1.6 8.2 4.5 2.6 3.8 2.7 8 .3 11.4l16.4 5.8-7.1 5-15.1-5.5-2.8 2 7.6 10.8-6.3 4.5-19.8-28zm15.2 8l3.8-2.7c1.5-1.1 2.4-2.2 2.6-3.4.2-1.1-.2-2.2-1-3.4-1-1.5-2.2-2.2-3.6-2.2-1 0-2.2.4-3.4 1.3L57 58.9l5.5 7.7z"></path> <path d="M65.9 48.6c3.2 0 5.9 1.7 7.8 4.3 2.6 3.7 2.7 7.9-.1 11.4L89.7 70l-6.1 4.3-15.1-5.5-3.4 2.4L72.7 82l-5.5 3.9L48 58.7l10.7-7.5c2.6-1.8 5.1-2.6 7.2-2.6m-3.6 18.7l4.3-3c3.4-2.4 3.4-5.1 1.7-7.5-1-1.5-2.4-2.4-4-2.4-1.1 0-2.3.4-3.7 1.4l-4.3 3 6 8.5m3.6-19.7c-2.5 0-5.2.9-7.8 2.8l-10.7 7.5-.8.6.6.8 19.2 27.2.6.8.8-.6 5.5-3.9.8-.6-.6-.8-7.1-10 2.2-1.5 14.7 5.3.5.2.4-.3 6.1-4.3 1.6-1.1-1.9-.6-14.9-5.3c2.2-3.5 2-7.7-.7-11.5-2.1-3-5.1-4.7-8.5-4.7zM57.7 59l3.4-2.4c1.1-.8 2.2-1.2 3.1-1.2 1.2 0 2.2.7 3.2 2 .8 1.1 1.1 2.1.9 3-.2 1.1-1 2.1-2.4 3.1l-3.4 2.4-4.8-6.9zM92.7 37.3l-10 5-2.8-5.6 27-13.6 2.8 5.6-10.1 5.1 12.6 25-6.9 3.5"></path> <path d="M106.7 23.8l2.4 4.7-10 5 12.6 25-6 3-12.6-25-10 5-2.4-4.7 26-13m.4-1.3l-.9.4L80.1 36l-.9.4.4.9L82 42l.4.9.9-.4 9.2-4.6L104.6 62l.4.9.9-.4 6-3 .9-.4-.4-.9L100.3 34l9.2-4.6.9-.4-.4-.9-2.4-4.7-.5-.9zM120.9 17.4l7.5-2.3 3.8 12.3 14-4.3-3.8-12.3 7.4-2.3L160 41.2l-7.5 2.3-4.3-14-14 4.3 4.3 14-7.4 2.3"></path> <path d="M149.5 9.1l9.9 31.8-6.5 2-4.4-14-15 4.7 4.4 14-6.5 2-9.9-31.8 6.5-2 3.8 12.3 15-4.7-3.8-12.3 6.5-2m.6-1.3l-1 .3-6.5 2-1 .3.3 1 3.5 11.3-13.1 4.1-3.3-11.3-.3-1-1 .3-6.5 2-1 .3.3 1 9.9 31.8.3 1 1-.3 6.5-2 1-.3-.3-1-4.1-13.1 13.1-4.1 4.1 13.1.3 1 1-.3 6.5-2 1-.3-.3-1-9.9-31.8-.5-1zM167.8 4.6L179.9 3c1.4-.2 2.7-.3 4-.3 9.9 0 16.2 5.4 17.4 14.8.6 4.9-.4 9.3-3 12.6-2.9 3.7-7.7 6-14 6.9l-12.1 1.5-4.4-33.9zM179 31.2l4.1-.5c4.1-.5 7.1-1.9 8.8-4.1 1.5-2 2-4.6 1.6-8-.8-6.3-4.2-9.3-10.3-9.3-.9 0-1.8.1-2.8.2l-4.1.5 2.7 21.2z"></path> <path d="M183.8 3.3c10.6 0 15.9 6.2 16.9 14.4 1.2 9.1-3.5 17.2-16.6 18.9L172.5 38l-4.2-33 11.6-1.5c1.4-.1 2.7-.2 3.9-.2m-5.2 28.5l4.6-.6c9-1.1 11.6-6.1 10.8-12.7-.7-5.9-3.8-9.7-10.8-9.7-.9 0-1.8.1-2.9.2l-4.6.6 2.9 22.2m5.2-29.5c-1.3 0-2.6.1-4 .3L168.2 4l-1 .1.1 1 4.2 33 .1 1 1-.1 11.6-1.5c6.5-.8 11.3-3.2 14.4-7 2.7-3.4 3.8-7.9 3.1-13-1.2-9.7-7.7-15.2-17.9-15.2zm-6.9 8.1l3.6-.5c1-.1 1.9-.2 2.7-.2 5.9 0 9 2.8 9.8 8.9.4 3.2-.1 5.8-1.5 7.6-1.6 2.1-4.4 3.4-8.4 3.9l-3.6.5-2.6-20.2z"></path> <g> <path d="M235.9 35.2l-3.1-8.3-12.8-.5-3.7 8.1-7.6-.3L224.4.5l5.9.2 13.4 34.7-7.8-.2zm-5.1-14.1L227 10.7l-4.5 10.1 8.3.3z"></path> <path d="M224.8 1l5.3.2 13 33.7-6.8-.2-3.1-8.3-13.5-.4-3.7 8.1-6.5-.2L224.8 1m6.7 20.6L227 9.4l-5.3 11.9 9.8.3M224.1 0l-.3.6-15.2 32.8-.6 1.4 1.5.1 6.5.1h.7l.3-.6 3.4-7.5 12.1.4 2.9 7.7.2.6h.7l6.8.2 1.5.1-.5-1.4L231 .8l-.2-.6h-.7l-5.3-.2h-.7zm-.9 20.3l3.7-8.3 3.1 8.5-6.8-.2z"></path> </g> <g> <path d="M256.6 37.7l2.3-13.4-9.6-22.7 8.4 1.5 6.3 15.4 11.2-12.3 8.2 1.4-16.8 18-2.4 13.4"></path> <path d="M250.1 2.3l7.3 1.3 6.5 15.8 11.5-12.7 7 1.2-16.3 17.4-2.3 13.1-6.7-1.2 2.3-13.1-9.3-21.8M248.4 1l.7 1.7 9.3 21.6-2.2 12.8-.2 1 1 .2 6.7 1.2 1 .2.2-1 2.2-12.8 16.1-17.2 1.3-1.3-1.9-.4-7-1.2-.6-.1-.4.4-10.4 11.5-5.9-14.4-.2-.5-.5-.1-7.3-1.3-1.9-.3z"></path> </g> <g> <path d="M325.5 58.1c-2.8 0-6-.7-8.8-1.9-4.5-1.9-8.1-5.3-9.9-9.5-2-4.4-2-9.3.1-14.2 2.9-6.8 8.9-10.8 16-10.8 2.7 0 5.3.6 7.9 1.7 4.1 1.8 7.8 4.8 9.5 7.9l.1.2-3 6.9-.5-1c-1.7-3.6-4.5-6.2-8.1-7.8-1.6-.7-3.2-1-4.8-1-4.3 0-7.9 2.6-9.8 7.2-2.7 6.3-.5 12.2 5.6 14.8 2 .9 4.1 1.3 6.2 1.3 1.7 0 3.4-.3 5-.8l1-.3-3 6.9-.2.1c-.9.2-2.1.3-3.3.3z"></path> <path d="M322.9 22.3c2.6 0 5.2.5 7.7 1.6 4 1.7 7.6 4.6 9.3 7.7l-2.4 5.7c-1.5-3.2-4.1-6.2-8.4-8.1-1.7-.7-3.3-1.1-4.9-1.1-4.3 0-8.2 2.5-10.3 7.5-2.9 6.8-.2 12.9 5.8 15.5 2.2 1 4.4 1.3 6.4 1.3 1.8 0 3.6-.3 5.2-.8l-2.4 5.7c-1 .3-2.2.4-3.4.4-2.7 0-5.8-.6-8.6-1.8-8.8-3.8-13.8-13.1-9.6-23 3.1-7.2 9.1-10.6 15.6-10.6m0-1c-7.3 0-13.5 4.2-16.5 11.1-2.1 5-2.2 10-.1 14.6 1.9 4.3 5.5 7.7 10.2 9.7 2.9 1.2 6.1 1.9 9 1.9 1.3 0 2.5-.1 3.6-.4l.5-.1.2-.5 2.4-5.7.9-2-2.1.7c-1.6.5-3.2.8-4.9.8-2 0-4.1-.4-6-1.3-5.8-2.5-7.9-8.1-5.3-14.2 1.9-4.4 5.3-6.9 9.4-6.9 1.5 0 3 .3 4.6 1 3.5 1.5 6.2 4.1 7.9 7.6l1 2 .9-2 2.4-5.7.2-.5-.2-.4c-1.8-3.2-5.5-6.3-9.8-8.1-2.9-1-5.6-1.6-8.3-1.6z"></path> </g> <g> <path d="M338 66l18-29.1 6.6 4.1-14.7 23.7 12.7 7.9-3.3 5.3"></path> <path d="M356.2 37.6l5.7 3.6L347.2 65l12.7 7.9-2.8 4.5L338.7 66l17.5-28.4m-.3-1.4l-.5.8-17.5 28.3-.5.8.8.5L356.6 78l.8.5.5-.8 2.8-4.5.5-.8-.8-.5-11.8-7.3 14.2-22.9.5-.8-.8-.5-5.7-3.6-.9-.6z"></path> </g> <g> <path d="M385.6 97.7c-3.5 0-7-1.5-10.3-4.2-7.5-6.4-8-15-1.1-23l11.9-14 6 5.1-11.8 13.8c-2.2 2.6-3.4 5-3.4 7.3 0 2.1.9 4 2.9 5.7 1.6 1.4 3.3 2.1 5 2.1 2.5 0 5.2-1.6 7.8-4.6l11.8-13.8 5.8 4.9-11.9 14c-3.9 4.4-8.2 6.7-12.7 6.7z"></path> <path d="M386.2 57.1l5.2 4.5L379.9 75c-4.7 5.5-4.6 10.2-.4 13.7 1.7 1.4 3.5 2.2 5.3 2.2 2.6 0 5.4-1.6 8.1-4.8l11.5-13.5 5 4.3-11.6 13.6c-3.9 4.6-8.1 6.6-12.2 6.6-3.5 0-6.9-1.5-10-4.1-6.7-5.7-8.4-13.7-1.1-22.3l11.7-13.6m-.2-1.4l-.6.8-11.6 13.6c-7 8.2-6.6 17.1 1.2 23.7 3.3 2.8 7 4.3 10.6 4.3 4.6 0 9.1-2.4 13-7l11.6-13.6.6-.8-.8-.6-5-4.3-.8-.6-.6.8-11.5 13.5c-2.5 2.9-5 4.4-7.4 4.4-1.6 0-3.1-.7-4.6-1.9-1.8-1.6-2.8-3.4-2.7-5.3 0-2.1 1.1-4.4 3.3-6.9l11.5-13.5.6-.8-.8-.6-5.2-4.5-.8-.7z"></path> </g> <g> <path d="M414.5 127.7c-3.1 0-6.1-1.7-8.9-4.9l-9-10.7L422.8 90l8.7 10.2c2.3 2.7 3.3 5.3 3.1 7.9-.2 2.3-1.3 4.4-3.4 6.1-1.4 1.2-3.5 1.9-5.6 1.9-.5 0-.9 0-1.3-.1.7 3.4-.5 6.9-3.2 9.1-2.1 1.7-4.3 2.6-6.6 2.6zm-5.3-9.6c1.3 1.5 2.7 2.3 4 2.3 1 0 2.1-.4 3.1-1.3 1.1-.9 1.7-2 1.8-3.1.1-1.3-.5-2.6-1.7-4l-3.3-3.9-7.2 6.1 3.3 3.9zm11.3-10.2c1 1.2 2.1 1.8 3.2 1.8.8 0 1.7-.3 2.5-1 .9-.7 1.4-1.6 1.5-2.5.1-1-.3-2.1-1.3-3.2l-2.9-3.5-5.8 4.9 2.8 3.5z"></path> <path d="M422.7 90.6l8.3 9.9c4.6 5.5 3.5 10.2-.2 13.3-1.4 1.2-3.4 1.8-5.3 1.8-.7 0-1.4-.1-2-.2 1 3.4-.2 7.1-2.9 9.4-1.8 1.6-3.9 2.5-6.2 2.5-2.8 0-5.7-1.4-8.5-4.8l-8.7-10.3 25.5-21.6m1 19.7c1 0 1.9-.4 2.8-1.1 1.9-1.6 2.4-3.8.2-6.4l-3.3-3.8-6.6 5.6 3.3 3.8c1.2 1.3 2.4 1.9 3.6 1.9m-10.5 10.6c1.2 0 2.4-.5 3.4-1.4 2.3-1.9 2.9-4.6.2-7.8l-3.6-4.2-8 6.8 3.6 4.2c1.5 1.7 3 2.4 4.4 2.4m9.6-31.7l-.8.6-25.4 21.5-.8.6.6.8 8.7 10.3c2.8 3.4 6.1 5.1 9.3 5.1 2.4 0 4.7-.9 6.8-2.7 2.6-2.2 3.9-5.6 3.5-8.9h.7c2.3 0 4.4-.7 5.9-2 2.1-1.8 3.4-4 3.5-6.4.2-2.7-.9-5.5-3.2-8.2l-8.3-9.9-.5-.8zm-4.5 15.3l5.1-4.3 2.6 3.1c.9 1 1.3 2 1.2 2.9-.1.8-.5 1.5-1.3 2.2-.7.6-1.4.9-2.1.9-1 0-1.9-.6-2.8-1.6l-2.7-3.2zm-11.6 9.8l6.5-5.5 2.9 3.5c1.1 1.3 1.6 2.6 1.6 3.7-.1 1-.6 1.9-1.6 2.8-.9.8-1.8 1.2-2.7 1.2-1.2 0-2.5-.7-3.7-2.1l-3-3.6z"></path> </g> </g> <g stroke-miterlimit="10"> <path fill="#F1DF0C" stroke="#231F20" stroke-width="10" d="M428 426.7c0 31.4-94 61.4-210 61.4S8 458.1 8 426.7s94-56.8 210-56.8 210 25.5 210 56.8z"></path> <path fill="#FFF" stroke="#231F20" stroke-width="10" stroke-linecap="round" stroke-linejoin="round" d="M52.9 213.3c-7.6 2.4-14.4 7.1-14.4 15.9v181.6c0 4.5 1.3 9.3 4.7 11.8 72.5 53.1 279.4 46.7 347 0 3.7-2.6 5.3-7.6 5.3-12.3v-181c0-8.8-5.8-12.8-14.4-15.5-.1 0-138.5-59.9-328.2-.5z"></path> <path fill="#FFF" stroke="#231F20" stroke-width="10" stroke-linecap="round" stroke-linejoin="round" d="M300 327.1c-13 2-28.4-10.8-42.3-9.8-13.4 1-26.6 15.8-40.2 15.9-13.7.1-27-14.7-40.4-15.6-14-.9-29.3 12-42.3 10.1-14.3-2.1-24.6-18.8-36.7-22.2-14.8-4.1-33.7 3.9-43.6-2 0 0-17.8-5.9-16.1-28.5l.1-46.2c0-8.8 6.8-13.5 14.4-15.9 189.8-59.4 328.1.4 328.1.4 8.6 2.7 14.4 6.7 14.4 15.5V283c-2.2 15.9-15 20.7-15 20.7-10.4 5.6-29.1-2.8-43.6 1.2-12.4 3.3-22.6 20-36.8 22.2-13 2-28.4-10.8-42.3-9.8-13.4 1-26.6 15.8-40.2 15.9-13.7.1-27-14.7-40.4-15.6-14-.9-29.3 12-42.3 10.1-14.3-2.1-24.6-18.8-36.7-22.2-14.8-4.1-33.7 3.9-43.6-2"></path> <path fill="#F4E006" stroke="#231F20" stroke-width="10" stroke-linecap="round" stroke-linejoin="round" d="M217.9 141.3c-2.7-11.7-11.7-20.9-23.2-23.9 11.5-3.2 20.3-12.6 22.8-24.3 2.7 11.7 11.7 20.9 23.2 23.9-11.4 3.2-20.3 12.6-22.8 24.3zM289 115.4c-2.7-11.7-11.7-20.9-23.2-23.9 11.5-3.2 20.3-12.6 22.8-24.3 2.7 11.7 11.7 20.9 23.2 23.9-11.4 3.3-20.3 12.6-22.8 24.3zM145.8 115.4c-2.7-11.7-11.7-20.9-23.2-23.9 11.5-3.2 20.3-12.6 22.8-24.3 2.7 11.7 11.7 20.9 23.2 23.9-11.5 3.3-20.4 12.6-22.8 24.3z"></path> <path fill="#FFF" stroke="#231F20" stroke-width="10" stroke-linecap="round" stroke-linejoin="round" d="M275.5 124h29.1v101.8h-29.1zM258 226.9h64.6M202.5 147.7h29.1v101.8h-29.1zM185 250.6h64.6M131.1 124h29.1v101.8h-29.1zM113.6 226.9h64.6"></path> <path fill="none" stroke="#231F20" stroke-width="10" stroke-linecap="round" stroke-linejoin="round" d="M366.4 249.1c-65.6 37-236 37-295.3 0"></path> <circle fill="#EA6F26" stroke="#EA6F26" stroke-width="6.464" cx="143.8" cy="353" r="6.5"></circle> <circle fill="#EA6F26" stroke="#EA6F26" stroke-width="6.464" cx="287.1" cy="361.6" r="6.5"></circle> <circle fill="#20A8E1" stroke="#20A8E1" stroke-width="6.464" cx="151.3" cy="425.1" r="6.5"></circle> <circle fill="#F2DF09" stroke="#F2DF09" stroke-width="6.464" cx="141.1" cy="383.1" r="6.5"></circle> <circle fill="#F2DF09" stroke="#F2DF09" stroke-width="6.464" cx="337.2" cy="342.7" r="6.5"></circle> <circle fill="#844C9E" stroke="#844C9E" stroke-width="6.464" cx="100.7" cy="382.6" r="6.5"></circle> <circle fill="#844C9E" stroke="#844C9E" stroke-width="6.464" cx="198.2" cy="428.4" r="6.5"></circle> <circle fill="#844C9E" stroke="#844C9E" stroke-width="6.464" cx="280.6" cy="392.8" r="6.5"></circle> <circle fill="#844C9E" stroke="#844C9E" stroke-width="6.464" cx="366.2" cy="365.3" r="6.5"></circle> <circle fill="#F2DF09" stroke="#F2DF09" stroke-width="6.464" cx="233.7" cy="421.9" r="6.5"></circle> <circle fill="#EA6F26" stroke="#EA6F26" stroke-width="6.464" cx="353.3" cy="405.7" r="6.5"></circle> <circle fill="#EA4C93" stroke="#EA4C93" stroke-width="6.464" cx="314.5" cy="420.3" r="6.5"></circle> <circle fill="#20A8E1" stroke="#20A8E1" stroke-width="6.464" cx="74.8" cy="330.3" r="6.5"></circle> <circle fill="#20A8E1" stroke="#20A8E1" stroke-width="6.464" cx="277.4" cy="425.1" r="6.5"></circle> <circle fill="#20A8E1" stroke="#20A8E1" stroke-width="6.464" cx="189" cy="354" r="6.5"></circle> <circle fill="#77C046" stroke="#77C046" stroke-width="6.464" cx="73" cy="405.6" r="6.5"></circle> <circle fill="#77C046" stroke="#77C046" stroke-width="6.464" cx="104.1" cy="353.6" r="6.5"></circle> <circle fill="#77C046" stroke="#77C046" stroke-width="6.464" cx="222.5" cy="387.7" r="6.5"></circle> <circle fill="#77C046" stroke="#77C046" stroke-width="6.464" cx="324.5" cy="380" r="6.5"></circle> <circle fill="#77C046" stroke="#77C046" stroke-width="6.464" cx="367.9" cy="331.4" r="6.5"></circle> <circle fill="#EA4C93" stroke="#EA4C93" stroke-width="6.464" cx="72.7" cy="362.1" r="6.5"></circle> <circle fill="#EA6F26" stroke="#EA6F26" stroke-width="6.464" cx="109.3" cy="420.3" r="6.5"></circle> <circle fill="#EA4C93" stroke="#EA4C93" stroke-width="6.464" cx="178.8" cy="394.4" r="6.5"></circle> <circle fill="#EA4C93" stroke="#EA4C93" stroke-width="6.464" cx="247.2" cy="360.5" r="6.5"></circle> </g> </svg> 