<svg width="528" height="706" viewBox="0 0 528 706" xmlns="http://www.w3.org/2000/svg" xmlns:xlink="http://www.w3.org/1999/xlink"><defs><path id="a" d="M.094.822h53.41v38.483H.094V.822z"/></defs><g fill="none" fill-rule="evenodd"><path d="M521 699H77.72C38.662 699 7 667.818 7 629.353V217.19c0-38.464 31.663-69.646 70.72-69.646H521L262.112 52S109.548 66.446 30.332 164.688" stroke="#201D1E" stroke-width="14" stroke-linecap="round" stroke-linejoin="round"/><path d="M213.323 111.172c-3.09-6.1-.586-13.512 5.595-16.562l28.978-14.303c6.18-3.05 13.69-.58 16.78 5.522 3.09 6.098.587 13.51-5.593 16.56l-28.98 14.303c-6.18 3.05-13.69.58-16.78-5.52" fill="#834D9D"/><path d="M445.003 77.942c.137-6.73 5.803-12.073 12.663-11.94l32.163.63c6.858.134 12.305 5.695 12.167 12.426-.137 6.73-5.804 12.073-12.664 11.94l-32.163-.63c-6.858-.134-12.305-5.695-12.167-12.426" fill="#E96C25"/><path d="M22.18 100.76c-3.867-5.51-2.452-13.042 3.162-16.836l26.32-17.786c5.614-3.793 13.293-2.405 17.16 3.103 3.865 5.51 2.45 13.043-3.164 16.836l-26.32 17.786c-5.614 3.793-13.293 2.405-17.16-3.103" fill="#73BF45"/><g transform="translate(297)"><mask id="b" fill="#fff"><use xlink:href="#a"/></mask><path d="M52.138 32.714c-3.12 5.95-10.59 8.305-16.688 5.26l-28.6-14.28c-6.1-3.044-8.512-10.33-5.39-16.28C4.58 1.46 12.05-.893 18.15 2.153l28.598 14.278c6.1 3.045 8.512 10.332 5.39 16.282" fill="#E64891" mask="url(#b)"/></g><path d="M160.402 108c-5.89 0-11.51-2.492-15.416-6.84L122.192 75.81c-3.653-4.062-5.484-9.283-5.154-14.7.33-5.418 2.777-10.385 6.895-13.99 3.774-3.3 8.626-5.118 13.665-5.118 5.89 0 11.51 2.493 15.417 6.84l22.794 25.353c3.652 4.062 5.48 9.283 5.152 14.7-.33 5.418-2.78 10.385-6.896 13.988-3.773 3.302-8.626 5.12-13.664 5.12" fill="#F3DF06"/><path d="M137.053 35h-.002c-6.862 0-13.47 2.452-18.608 6.9-5.608 4.858-8.942 11.556-9.39 18.86-.448 7.304 2.043 14.342 7.017 19.818l22.887 25.203c5.32 5.86 12.97 9.22 20.99 9.22 6.864 0 13.474-2.45 18.61-6.9 5.608-4.857 8.943-11.556 9.392-18.86.447-7.304-2.046-14.342-7.02-19.817L158.044 44.22c-5.32-5.86-12.972-9.22-20.99-9.22m-.002 14.393c3.677 0 7.336 1.478 9.968 4.376l22.888 25.202c4.88 5.376 4.377 13.592-1.126 18.36-2.536 2.195-5.69 3.276-8.832 3.276-3.675 0-7.334-1.48-9.966-4.377L127.094 71.03c-4.88-5.376-4.377-13.592 1.126-18.358 2.536-2.197 5.69-3.277 8.83-3.277" fill="#FEFEFE"/><path d="M349.528 115c-6.363 0-12.258-2.82-16.175-7.734-6.975-8.748-5.398-21.434 3.516-28.28l26.96-20.705c3.596-2.76 8.086-4.28 12.642-4.28 6.362 0 12.256 2.82 16.176 7.733 6.974 8.75 5.397 21.436-3.52 28.282l-26.96 20.704c-3.594 2.76-8.084 4.28-12.64 4.28" fill="#1AAAE1"/><path d="M377.025 47h-.003c-6.21 0-12.325 2.08-17.223 5.857l-27.08 20.88c-12.144 9.364-14.292 26.718-4.79 38.685 5.336 6.722 13.367 10.578 22.03 10.578 6.21 0 12.326-2.08 17.224-5.857l27.08-20.88c5.883-4.537 9.622-11.06 10.526-18.365.905-7.305-1.133-14.522-5.735-20.32C393.717 50.856 385.687 47 377.025 47m0 14.478c3.942 0 7.842 1.723 10.46 5.022 4.52 5.69 3.5 13.908-2.274 18.36l-27.078 20.882c-2.43 1.872-5.313 2.78-8.17 2.78-3.944 0-7.844-1.723-10.463-5.022-4.52-5.69-3.5-13.908 2.272-18.36l27.08-20.882c2.43-1.873 5.312-2.78 8.172-2.78" fill="#FEFEFE"/></g></svg>