<svg id="Layer_1" xmlns="http://www.w3.org/2000/svg" viewBox="0 0 323.2 205.5">
  <style>
    .st0{fill:none;stroke:#EC2586;stroke-width:5.1555;stroke-miterlimit:10;} .st1{fill:none;stroke:#334A8C;stroke-width:5.1555;stroke-miterlimit:10;} .st2{fill:none;stroke:#1DA7DF;stroke-width:5.1555;stroke-miterlimit:10;} .st3{fill:none;stroke:#844E9E;stroke-width:5.1555;stroke-miterlimit:10;} .st4{fill:none;stroke:#52AE48;stroke-width:5.1555;stroke-miterlimit:10;} .st5{fill:none;stroke:#F0DE0C;stroke-width:5.1555;stroke-miterlimit:10;} .st6{fill:none;stroke:#E96E26;stroke-width:5.1555;stroke-miterlimit:10;} .st7{fill:none;stroke:#DB2127;stroke-width:5.1555;stroke-miterlimit:10;} .st8{fill:#F0DE0C;stroke:#221F1F;stroke-width:3.25;stroke-linecap:round;stroke-linejoin:round;stroke-miterlimit:10;}
  </style>
  <path class="st0" d="M264.3 106.3C264.3 49 217.9 2.6 160.7 2.6S57 49 57 106.3"/>
  <path class="st1" d="M210.2 106.3c0-27.3-22.2-49.5-49.5-49.5s-49.5 22.2-49.5 49.5"/>
  <path class="st2" d="M199.2 106.3c0-21.3-17.3-38.6-38.6-38.6S122 85 122 106.3"/>
  <path class="st3" d="M188.6 106.3c0-15.4-12.5-27.9-27.9-27.9s-27.9 12.5-27.9 27.9"/>
  <path class="st4" d="M221 106.3C221 73 194 46 160.7 46s-60.3 27-60.3 60.3"/>
  <path class="st5" d="M232.2 106.3c0-39.5-32-71.5-71.5-71.5s-71.5 32-71.5 71.5"/>
  <path class="st6" d="M243.2 106.3c0-45.6-36.9-82.5-82.5-82.5s-82.5 36.9-82.5 82.5"/>
  <path class="st7" d="M253.9 106.3c0-51.5-41.7-93.2-93.2-93.2s-93.2 41.7-93.2 93.2"/>
  <path class="st8" d="M226.4 42.4c-1.8-7.8-7.8-13.9-15.4-15.9 7.6-2.1 13.5-8.4 15.2-16.2 1.8 7.8 7.8 13.9 15.4 15.9-7.7 2.2-13.6 8.4-15.2 16.2z"/>
  <g>
    <path d="M5.8 199.3c-3.3-4-5.1-8.8-5.8-14.8.3-4.9 1.4-10.6 2.8-16.3 1.7-6 3.8-11.8 7.1-17.1.4-.7.4-1.3-.1-1.9-6.4-8.4-3.2-18.2 3.5-24.7 3.9-3.7 9-5.4 14.2-4.9 2.9.3 2.5 4.5-.6 4.5-10 .2-17 10-14 19.6.1.6.2 1.3.7 1.4.7.2.8-.6 1.2-1 6.3-7.6 13.8-13.9 22.5-18.3 3.3-1.8 7.2-2.6 11.9-2.3 6.7.3 11.1 8.5 7.7 14.1-4.3 7.4-10.4 12.6-18.6 15.7-5.3 2-10.6 3.6-16.4 2.8-1.9-.3-3.7-.4-5.3-1.4-1.5-.8-2.2-.2-2.9 1-2.4 4.5-4 9.3-5.2 14.2-1.1 4.4-2.2 8.8-2.4 13.4-.1 4.6 1.2 8.9 4 12.8 1.9 2.6 4.3 3.9 7 3.8 9.9-.1 19.6-12.7 22.8-24.1.2-1 .9-4-2.2-6.1-2.4-1.5-6.5 1-11.3 6.8-1.5 1.8-2.4 3.6-3.5 4.8-1.9 2-5.2-.8-3.5-4.4 1.7-3.6 6.8-9.3 10.6-10.9 2-.9 8.3-2.6 11.3-.1 3.6 2.8 5.3 7.4 4.4 11.3-1.8 6.9-11.1 27.2-26.1 28.3-5.7.3-10.3-1.7-13.8-6.2zM38 147.5c5.9-2.4 10.5-6.6 13.8-12.6.7-1.2.8-2.2.6-3.3-.6-2.2-2.9-3.5-5.8-3.1-4.5.4-8.3 2.5-11.9 5.1-6 4.2-11.3 8.9-15.7 14.7-1.3 1.7-1.2 1.9.9 2.2 2.4.5 4.8.5 8.1.5 3-.2 6.5-2 10-3.5zM50.6 178.4c1.1-2.9 4.6-17.2 5.1-18.8 2.6-8.4 4.9-17 8.5-24.8 3.9-8.4 4.9-9.9 11.1-16.8 2.1-2.4 4.8-4.4 8.4-5 4.8-.7 7.7 1.2 7.6 6-.1 2.4-.8 4.6-1.5 6.7-3.8 10.4-5.6 13.2-13.3 20.9L64 158.7c2.3-2.2 8.3-4.2 11.6-4.2 5.1 0 2.9 6.3 1.8 9.7-.8 2.5-6.1 13.6-3.3 13.6 2.2 0 7.9-6.8 13.1-12.4 1.2-1.2 2.5-1.3 3.4-.8 1.2.8 1.2 2.9.2 3.9-7 7-12.5 14.4-18.6 14.4-12.4 0 3.9-23.3.9-23.3-2.8 0-13.7 8.4-17.4 21.8-.4 1.3-1.4 2.9-3.9 1.3-2.3-1.4-1.8-2.7-1.2-4.3zm29.5-44.1c1.7-2.9 6.2-11.1 6.3-13.1.1-2-1-3.8-3.5-2.9-2.6.9-3.5 2.6-5.2 4.4-4.2 4.4-7.4 12.2-10.2 17.8-2 4-5.5 13-3.8 13.1.8.2 14.7-16.3 16.4-19.3z"/>
    <path d="M85.1 169.5c1.5-8.8 4.9-11.5 10-15.2.7-.5 1-.6 1.7-.9 2.8-1.3 7-1.3 8.9.6 2.9 2.9 1.8 8.8-3.7 12.2-4.3 2.7-10.8 3.1-11.2 4.2-1.3 3.8 1.5 7.4 3.5 8.1 4.1 1.3 9-3.6 17.4-12.2 2.9-2.9 6.7-.3 2.5 4.2-7.4 7.9-11.9 14.4-21.4 12.8-5-.9-8.8-7.1-7.7-13.8zm16.3-8.8c2.4-2.8 2-4.4-1-3.5-4.2 1.5-6.3 2.8-8.2 6.6-.5 1.1.6.8 1.2.6 4.4-1 6.8-2.3 8-3.7z"/>
    <path d="M110.7 171.3c0-9.9 8.1-18.4 14.7-18.4 4.9 0 7 1.5 8.3 2.9 1.3 1.3 1.1 2.6.5 3.5-.6.9-2 1-2.7.4-4-3.1-7.7-1.9-10.5.4-3.6 3.1-5.2 5.8-5.2 11.3 0 3.5 2.2 6.7 6.1 6.7 5.4 0 7.8-3.1 15.4-11.6 1-1.2 3.2-1.8 4-1.2 1.1.9.9 2.9-.9 4.6-4.4 4.1-11.9 13.6-18.9 13.6-6 0-10.8-4-10.8-12.2z"/>
    <path d="M141.2 175.6c-.2.8-1 3.3-1.4 6.2-.4 2.6-6.4 2.2-6-1.4.2-1.3 1.6-7.6 3.3-12.2 3.1-8.6 2.6-6.9 4.5-13.8 3.2-11.7 8.1-22.5 13.1-33 1.3-2.9 3.7-5.1 7.6-6.7 1.5-.7 2.7-.6 4 .3 1.2 1 1.8 2.3 1.6 4-.6 4.7-1.5 8.6-3 12.3-2.9 7.2-6.6 13.2-10.1 19.3-.2.4-3.1 4.2-2.8 4.3 3.9-2.6 7.2-.7 7.3 3.1.1 4.5-2.4 7.4-5.3 9.7-1.7 1.3-4.6 2.9-6.9 3.5-.9.2-1.2.9-.6 1.7.8 1.5 3.3 6.7 5.4 6.7 4.6 0 8.1-5.5 14.3-12.4 1.1-1.2 2.7-1.2 3.3-.6.4.4 2.5 1.2 0 3.8-6.1 6.5-11.1 14.1-17.6 14.1-7.2.1-7.5-8.4-10.7-8.9zm13.5-16.7c-.2-1-.9-1-1.4-.7-2.7 1.9-5.1 3.9-6.6 6.8-.1.3-.2.5 0 .8 0 .2.4.3.8.4 2.4.1 7.6-5 7.2-7.3zm1.6-20.6c4.6-8.4 9.4-16.3 6.5-18-1.4-.8-4.3 3.6-6.8 8.1-2.7 4.8-5.4 12.1-8.2 21.5-.4 1.1.8 1 1.3.3 2.3-4 5-7.9 7.2-11.9zM210.1 194.7c-3.9-2.2-6.7-5.1-8.5-8.6-.9-1.8-1.5-3.8-1.7-5.5-.4-4.4-.3-8 .5-11.5 1.9-8.4 5.1-16.3 9.8-24.3 4.7-7.7 10.7-14.5 19-21.1 2.8-2.3 6.3-4.3 9.9-5.7 4.5-1.7 9.3-1.9 14.2-.8 2.6.8 4.4 2.1 5.4 4.2.1.3.1.6.1 1-.3 2-2.2 2-2.7 1.9-1.1 0-2.1-.4-2.8-.8-4.5-2-9.3-1.8-14.5.6-4.4 1.9-7.8 4.9-11.4 8.2-11.3 10.2-18.5 23.4-21.6 39.5-.8 4.2-.4 7.9 1.1 11.1v.1c1.3 2.5 4.5 6 6.4 7 6.8 3.3 13.4 1.2 22.3-7.6 9.7-9.5 15.5-20.9 17.5-34.4.6-4.7.3-8.1-.9-11.1-1.2-2.5-2.8-4.1-4.7-4.7-2-.6-4-.3-6 1-6.7 4-9.7 8.4-9.6 14.5 0 .8 0 2.9-2.1 3.1-2.3.1-2.9-2.4-2.9-2.9-.5-3.5-.1-6.3 1.3-8.7 2.7-4.5 6.4-8.2 10.9-10.9 3.8-2.2 8.1-2.6 11.5-1.3 3.3 1.3 5.7 4 6.9 7.7 1.4 4.2 1.7 8.6.9 14-1.5 10.1-5.1 19.3-10.7 27.5-2.3 3.5-13.3 17.9-22.4 20.4-5.7 1.7-10.5 1.1-15.2-1.9zM280.8 176.6c-.1-1.4.1-2.8.1-4.2l-.2-.3c-2.4 2.1-4.6 5.1-6 6.2-2.2 1.8-4.3 3.9-7.3 4.4-4.7.8-6.8-4.5-6.8-9 0-7.9 4.1-13.2 6.7-18.1 1.7-3.2 6.2-.4 5.5 1-3.6 7.4-9.5 20.7-5.2 20.7 1.6 0 11.6-10.4 18.4-19.4.6-.8 1.1-1.7 1.9-2.3.8-.8 1.9-.8 2.9-.1 1.3.8.9 1.9.4 2.8-1.3 3-5.4 12.5-5.6 15.7-.1 1.1-.6 4.5 1 4.5s10-9.5 11.6-11.4c.3-.4 2.2-1.5 3.3-.4s.9 2.9.1 3.7c-9.7 10.2-12.5 13.1-17.5 13.1-3 0-3.4-4.2-3.3-6.9z"/>
    <path d="M296.4 178.1c-1-2.4-1.1-4.8-.5-7.6 1.7-6.7 8.6-17.8 7.8-17.9-1.1-.1-3.6-.1-4.7-.1-1 .1-2.2-.1-2.8-1.5-.5-1.3.1-2.4 1.3-2.8 1.9-.4 3.9-.5 6.3-.3 2.1.3 2.4.1 3.1-1.2 1.8-3.3 2-4.7 4-7.6.6-.7 6.8-1.6 4.4 3.4-.4.9-3.1 4.9-2.5 5.6.1.1 3.3 0 4.9-.2 1.2-.1 3.7-.2 3.7 1.5 0 1.6-.8 3-2.8 2.8-3.9-.4-3.4 0-7.3.1-3-.1-2.1.4-5.1 7.9-1 2.5-4.5 10.3-4.9 13.5-.2 1.9 1.4 4 3.4 4s5.6-2.7 10.7-8.6c3.4-4 4.7-5.8 7.3-4 1.2.8.6 2.3-2.5 5.5-7.6 7.9-11.5 12.7-15.6 12.7-3.9.3-6.6-1-8.2-5.2z"/>
  </g>
</svg>
