<svg id="Layer_1" xmlns="http://www.w3.org/2000/svg" xmlns:xlink="http://www.w3.org/1999/xlink" viewBox="0 0 289 60">
  <style>
    .st0{fill:none;} .st1{fill:none;stroke:#834C9C;stroke-width:3;stroke-miterlimit:10;} .st2{fill:none;stroke:#16A9E1;stroke-width:3;stroke-miterlimit:10;} .st3{fill:none;stroke:#71BE46;stroke-width:3;stroke-miterlimit:10;} .st4{fill:none;stroke:#F3DF06;stroke-width:3;stroke-miterlimit:10;} .st5{fill:none;stroke:#E96C25;stroke-width:3;stroke-miterlimit:10;} .st6{fill:none;stroke:#E94992;stroke-width:3;stroke-miterlimit:10;} .st7{fill:#FFFFFF;} .st8{fill:url(#SVGID_1_);} .st9{fill:#F0DE0C;} .st10{clip-path:url(#SVGID_3_);} .st11{fill:#020202;} .st12{fill:#FFFFFF;stroke:#000000;stroke-width:3.0144;stroke-linecap:round;stroke-linejoin:round;stroke-miterlimit:10;}
  </style>
  <pattern x="-663" y="-354" width="147.4" height="68.3" patternUnits="userSpaceOnUse" id="New_Pattern_Swatch_1" viewBox="0 -68.3 147.4 68.3" overflow="visible">
    <path class="st0" d="M0-68.3h147.4V0H0z"/>
    <path class="st1" d="M0-5.7h147.4"/>
    <path class="st2" d="M0-17.1h147.4"/>
    <path class="st3" d="M0-28.4h147.4"/>
    <path class="st4" d="M0-39.8h147.4"/>
    <path class="st5" d="M0-51.2h147.4"/>
    <path class="st6" d="M0-62.6h147.4"/>
    <path class="st0" d="M0-68.3h147.4V0H0z"/>
  </pattern>
  <path class="st7" d="M-761 0H791v60H-761z"/>
  <pattern id="SVGID_1_" xlink:href="#New_Pattern_Swatch_1" patternTransform="rotate(-45 -6813.423 -7289.825)"/>
  <path class="st8" d="M-761 0H791v60H-761z"/>
  <path class="st9" d="M-761 10.6H791v38.8H-761z"/>
  <g>
    <defs>
      <path id="SVGID_2_" d="M-761 10.6H791v38.8H-761z"/>
    </defs>
    <clipPath id="SVGID_3_">
      <use xlink:href="#SVGID_2_" overflow="visible"/>
    </clipPath>
    <g class="st10">
      <path class="st11" d="M71.4 37.5c-4.4 0-7.8-3.2-7.8-7.6 0-4.4 3.4-7.6 7.8-7.6s7.7 3.2 7.7 7.6c0 4.4-3.4 7.6-7.7 7.6zm0-12.8c-2.9 0-4.7 2.1-4.7 5.2s1.9 5.3 4.7 5.3c2.8 0 4.7-2.1 4.7-5.3s-1.9-5.2-4.7-5.2zM88.9 31.9h-2.5v5.2h-2.9V22.8h5.4c3.4 0 5 2.1 5 4.6 0 2.4-1.5 4.5-5 4.5zm-.5-7h-2.1v5h2.1c1.9 0 2.6-1.1 2.6-2.5s-.7-2.5-2.6-2.5zM97.7 37.1V22.8h9.3v2.3h-6.4v3.4h5.2v2.3h-5.2V35h6.4v2.3h-9.3zM121.8 37.1l-7.5-9.5v9.5h-2.6V22.8h2l7.5 9.5v-9.5h2.6v14.3h-2zM128.9 37.1V22.8h2.9v14.3h-2.9zM146.9 37.1l-7.5-9.5v9.5h-2.6V22.8h2l7.5 9.5v-9.5h2.6v14.3h-2zM161 37.5c-4.1 0-7.6-2.9-7.6-7.6s3.6-7.5 7.8-7.5c1.9 0 3.9.5 5.1 1.5v2.6c-1.2-1-2.7-1.8-4.8-1.8-3 0-5.1 2-5.1 5.3 0 3.2 2 5.2 4.9 5.2 1.1 0 2-.2 2.8-.6v-2.8h-2.5v-2.1h5.3V36c-.9.4-3.1 1.5-5.9 1.5zM182.2 37.4c-2.4 0-4.1-.9-5.1-1.8l.7-2.3c1 .9 2.5 1.9 4.4 1.9 1.4 0 2.5-.7 2.5-2 0-1.2-.7-1.8-3-2.4-3-.7-4.2-2.3-4.2-4.4 0-2.3 1.9-4 4.9-4 1.8 0 3.3.7 4.3 1.4l-.6 2c-1-.7-2.4-1.2-3.7-1.2-1.4 0-2.2.6-2.2 1.6 0 .8.5 1.5 2.5 2 3.3.8 4.8 2.2 4.8 4.7-.1 3.2-2.6 4.5-5.3 4.5zM198.8 37.5c-4.4 0-7.8-3.2-7.8-7.6 0-4.4 3.4-7.6 7.8-7.6s7.7 3.2 7.7 7.6c.1 4.4-3.3 7.6-7.7 7.6zm0-12.8c-2.9 0-4.8 2.1-4.8 5.2s1.9 5.3 4.8 5.3c2.8 0 4.7-2.1 4.7-5.3s-1.8-5.2-4.7-5.2zM218.1 37.5c-4.4 0-7.8-3.2-7.8-7.6 0-4.4 3.4-7.6 7.8-7.6s7.7 3.2 7.7 7.6c0 4.4-3.4 7.6-7.7 7.6zm0-12.8c-2.9 0-4.8 2.1-4.8 5.2s1.9 5.3 4.8 5.3c2.8 0 4.7-2.1 4.7-5.3s-1.9-5.2-4.7-5.2zM240.3 37.1l-7.5-9.5v9.5h-2.6V22.8h2l7.5 9.5v-9.5h2.6v14.3h-2zM249.8 32.9h-1.6l-1-10.1h3.5l-.9 10.1zm-2.1 4.2v-2.7h2.6v2.7h-2.6z"/>
      <path class="st12" d="M13.9 41.4c-1.4-6.2-6.2-11-12.2-12.6 6.1-1.7 10.7-6.6 12-12.8 1.4 6.2 6.2 11 12.2 12.6-6.1 1.7-10.7 6.6-12 12.8z"/>
    </g>
  </g>
</svg>
