<?xml version="1.0" encoding="UTF-8"?> <svg xmlns="http://www.w3.org/2000/svg" width="54" height="54" viewBox="0 0 54 54"> <g transform="translate(2 2)" fill="none" fill-rule="evenodd"> <rect stroke="#231F20" stroke-width="3" stroke-linecap="round" stroke-linejoin="round" width="50" height="50" rx="6"></rect> <path d="M17.19 19.542h3.096c0-.28-.004-.52 0-.762.03-1.535.005-3.075.108-4.606.095-1.425.5-2.778 1.408-3.932.966-1.23 2.276-1.883 3.772-2.154.89-.16 1.807-.236 2.714-.255 1.836-.038 3.673-.012 5.51-.01.106 0 .212.015.342.026v5.9h-.425c-.925 0-1.85 0-2.775.002-.258 0-.517.003-.775.02-1.276.086-1.785.542-1.84 1.813-.053 1.3-.01 2.605-.01 3.95h5.38c-.046.49-.08.93-.128 1.368-.152 1.42-.318 2.838-.46 4.258-.028.29-.147.356-.412.354-1.306-.01-2.612-.005-3.918-.004h-.487v17.672H20.3V25.51h-.89c-.638 0-1.277-.004-1.917 0-.192.002-.306-.043-.305-.27.005-1.876.002-3.75.002-5.698z" fill="#231F20"></path> </g> </svg> 