<?xml version="1.0" encoding="UTF-8"?> <!-- Generator: Adobe Illustrator 18.1.0, SVG Export Plug-In . SVG Version: 6.00 Build 0) --> <svg xmlns="http://www.w3.org/2000/svg" xmlns:xlink="http://www.w3.org/1999/xlink" id="Layer_1" x="0px" y="0px" viewBox="195.8 0 579.1 610.8" xml:space="preserve"> <path fill="#EFB750" d="M670.7,336.6c1-70.6-51.5-134.3-116.4-161.7s-139.2-24-207.7-7.6c-12.8,3-25.8,6.7-36.8,14 c-30.1,20-37.3,63.7-24,97.4c13.3,33.6,42.3,58.6,72.8,77.9c57.2,36.2,123.3,57.9,190.8,62.4c8.9,0.6,18,0.9,26.6-1.8 c5.7-1.8,11-4.8,16.1-7.9c18.6-11.2,36.4-23.9,53.3-37.7c13.6-11.2,27.1-23.6,34.2-39.7c7.2-16.1,6.8-36.8-5.1-49.7L670.7,336.6z"></path> <circle fill="#FFFFFF" stroke="#231F20" stroke-width="10.076" stroke-miterlimit="10" cx="503.6" cy="380.2" r="101.3"></circle> <path fill="#EFB750" stroke="#231F20" stroke-width="10.076" stroke-miterlimit="10" d="M504,74C357.2,74,238,193,238,339.9 S357,605.8,503.9,605.8s265.9-119.1,265.9-265.9S650.8,74,504,74z M504,443.7c-57.4,0-103.8-46.6-103.8-103.8 c0-57.4,46.6-103.8,103.8-103.8c57.4,0,103.8,46.6,103.8,103.8C607.8,397.3,561.4,443.7,504,443.7L504,443.7z"></path> <g display="none"> <path fill="none" stroke="#231F20" stroke-width="10.076" stroke-miterlimit="10" d="M472.1,58.4c-28,0-58.6-18.8-83.8-10.6 c-26.2,8.5-39.8,41.9-61.7,57.8c-22.1,16.1-58,18.9-74,40.8c-15.8,21.8-7.6,56.8-16,83c-8.3,25.2-35.8,48.5-35.8,76.5 c0,28,27.7,51.3,35.8,76.5c8.5,26.2,0.1,61.2,16,83c16,22.1,52,24.7,74,40.8c21.8,15.8,35.5,49.4,61.7,57.8 c25.2,8.2,55.8-10.6,83.8-10.6s58.6,18.8,83.8,10.6c26.2-8.5,39.8-41.9,61.7-57.8c22.1-16,58-18.8,74-40.8 c15.8-21.8,7.4-56.8,16-83c8.2-25.2,35.8-48.5,35.8-76.5s-27.7-51.3-35.8-76.5c-8.5-26.2-0.1-61.2-16-83 c-16-22.1-41.3-30.1-63.2-46.2c-21.8-15.8-46.2-44-72.4-52.5C530.6,39.6,500,58.4,472.1,58.4L472.1,58.4z M503.6,438.8 c-55.9,0-101.3-45.3-101.3-101.3s45.3-101.3,101.3-101.3s101.3,45.3,101.3,101.3C605,393.5,559.6,438.8,503.6,438.8z"></path> </g> <path fill="#E94C93" stroke="#000000" stroke-width="10" stroke-miterlimit="10" d="M707.5,382.4c8.2-25.2,35.8-48.5,35.8-76.5 c0-28-27.7-51.3-35.8-76.5c-6-18.5-3.6-41.5-7.3-61c-47.8-54.6-118-89.1-196.2-89.1c-144,0-260.7,116.7-260.7,260.7 c0,55.6,17.4,107,47,149.3c12.8,5,26,9.5,36.2,17c21.8,15.8,35.5,49.4,61.7,57.8c25.2,8.2,55.8-10.6,83.8-10.6 c28,0,58.6,18.8,83.8,10.6c26.2-8.5,39.8-41.9,61.7-57.8c22.1-16,58-18.8,74-40.8C707.4,443.6,699,408.6,707.5,382.4z M503,439.6 c-55.9,0-101.3-45.3-101.3-101.3c0-55.9,45.3-101.3,101.3-101.3s101.3,45.3,101.3,101.3C604.3,394.1,559,439.6,503,439.6z"></path> <path fill="#77C046" d="M628.5,198.4c-8.3,0-14.7-5.2-14.9-12.1c0-3.4,1.7-6.7,4.9-9c2.7-1.9,6.2-3,10-3l26.6-0.1 c8.3,0,14.9,5.2,14.9,11.9s-6.5,12.1-14.9,12.1L628.5,198.4z"></path> <path fill="#231F20" d="M655.1,178.8c5.6,0,10.2,3.3,10.2,7.4c0,4.1-4.5,7.4-10.2,7.4l-26.6,0.1c-5.6,0-10.2-3.3-10.2-7.4 s4.5-7.4,10.2-7.4L655.1,178.8 M655.1,169.6l-26.6,0.1c-10.8,0-19.4,7.3-19.4,16.7c0,9.3,8.5,16.6,19.4,16.6l26.6-0.1 c4.6,0,9.1-1.5,12.7-4c4.3-3.2,6.8-7.8,6.7-12.7C674.6,176.9,666.1,169.6,655.1,169.6z"></path> <path fill="#854F9F" d="M564,212c-4.9,0-9.7-3.2-12.7-8.2l-13.2-23c-4.1-7.2-2.8-15.5,3-18.9c1.6-0.9,3.3-1.3,5.1-1.3 c4.9,0,9.7,3.2,12.7,8.2l13.2,23c4.1,7.2,2.8,15.5-3,18.9C567.6,211.6,565.8,212,564,212L564,212z"></path> <path fill="#231F20" d="M546.3,165.1c3,0,6.6,2.2,8.7,6l13.2,23c2.8,4.9,2.2,10.5-1.3,12.6c-0.9,0.5-1.8,0.7-2.9,0.7 c-3,0-6.6-2.2-8.7-6l-13.2-23c-2.8-4.9-2.2-10.5,1.3-12.6C544.3,165.4,545.3,165.1,546.3,165.1 M546.3,156c-2.7,0-5.2,0.7-7.4,1.9 c-4.3,2.4-7.1,6.9-7.7,12.2c-0.5,4.3,0.6,8.9,2.9,12.9l13.2,23c3.8,6.5,10.1,10.5,16.7,10.5c2.7,0,5.2-0.7,7.4-1.9 c4.3-2.4,7.1-6.9,7.7-12.2c0.5-4.3-0.6-8.9-2.9-12.9l-13.2-23C559.2,160,552.9,156,546.3,156z"></path> <path fill="#20A8E1" d="M486.8,156.6c-3.5,0-6.6-1.3-8.7-3.9c-4.3-5.2-2.6-13.4,3.8-18.8l20.5-16.8c3.2-2.6,6.8-4,10.5-4 c3.5,0,6.6,1.3,8.7,3.9c4.3,5.2,2.6,13.4-3.8,18.8l-20.5,16.8C494.1,155.1,490.5,156.6,486.8,156.6z"></path> <path fill="#231F20" d="M512.9,117.8c2.1,0,3.9,0.7,5.1,2.2c2.6,3.2,1.2,8.7-3.2,12.2L494.4,149c-2.3,1.9-5.1,2.9-7.6,2.9 c-2.1,0-3.9-0.7-5.1-2.2c-2.6-3.2-1.2-8.7,3.2-12.2l20.5-16.8C507.8,118.8,510.6,117.8,512.9,117.8 M512.9,108.6 c-4.6,0-9.4,1.8-13.4,5l-20.4,16.8c-3.7,2.9-6.2,6.9-7.3,11.1c-1.3,5.1-0.4,10.4,2.8,14.1c2.9,3.5,7.3,5.5,12.2,5.5 c4.6,0,9.4-1.8,13.4-5l20.5-16.8c3.7-2.9,6.2-6.9,7.3-11.1c1.3-5.1,0.4-10.4-2.8-14.1C522.3,110.7,517.8,108.6,512.9,108.6 L512.9,108.6z"></path> <path fill="#EA6F26" d="M440.4,196.8c-3.2,0-6.3-1-9.3-2.9l-22.3-14.4c-6.9-4.5-9.6-12.6-5.8-18.2c2.1-3.2,5.6-4.9,9.7-4.9 c3.2,0,6.3,1,9.3,2.9l22.3,14.4c6.9,4.5,9.6,12.6,5.8,18.2C448.1,195,444.5,196.8,440.4,196.8z"></path> <path fill="#231F20" d="M412.7,161c2.2,0,4.5,0.7,6.7,2.1l22.3,14.4c4.8,3,6.8,8.4,4.5,11.8c-1.2,1.8-3.4,2.8-5.8,2.8 c-2.2,0-4.5-0.7-6.7-2.1l-22.3-14.4c-4.8-3-6.8-8.4-4.5-11.8C408,162,410.2,161,412.7,161 M412.7,151.8c-5.7,0-10.7,2.6-13.6,6.9 c-5.1,7.8-1.8,18.6,7.3,24.5l22.3,14.4c3.7,2.3,7.7,3.7,11.7,3.7c5.7,0,10.7-2.6,13.6-6.9c5.1-7.8,1.8-18.6-7.3-24.5l-22.3-14.4 C420.8,153.1,416.7,151.8,412.7,151.8z"></path> <path fill="#F1DF0C" d="M359.6,233.4c-5.6,0-10.8-4.5-12.9-11l-8-25.2c-1.1-3.5-1.1-7.2-0.1-10.4c1.2-3.7,3.8-6.3,7.1-7.4 c1-0.4,2.1-0.5,3-0.5c5.6,0,10.8,4.5,12.9,11l8,25.2c2.6,7.9-0.6,15.7-7.1,17.8C361.8,233.1,360.7,233.4,359.6,233.4z"></path> <path fill="#231F20" d="M348.9,183.4c3.4,0,7.1,3.2,8.5,7.8l8,25.2c1.7,5.4-0.1,10.7-4,11.9c-0.6,0.1-1.1,0.2-1.7,0.2 c-3.4,0-7.1-3.2-8.5-7.8l-8-25.2c-1.7-5.4,0.1-10.7,4-11.9C347.6,183.5,348.3,183.4,348.9,183.4 M348.9,174.1c-1.5,0-3,0.2-4.5,0.7 c-8.9,2.8-13.3,13.2-10,23.5l8,25.2c2.7,8.5,9.6,14.3,17.3,14.3c1.5,0,3-0.2,4.5-0.7c8.9-2.8,13.3-13.2,10-23.5l-8-25.2 C363.5,179.9,356.5,174.1,348.9,174.1z"></path> <path fill="#77C046" d="M302.7,293c-6.2,0-11.3-3.4-12.7-8.3c-1.8-6.5,3-13.3,11.1-15.6l25.6-7.1c1.6-0.5,3.2-0.6,4.9-0.6 c6.2,0,11.3,3.4,12.7,8.3c0.9,3.3,0,6.9-2.3,10c-2.1,2.6-5.2,4.6-8.8,5.6l-25.6,7.1C305.8,292.7,304.3,293,302.7,293z"></path> <path fill="#231F20" d="M331.6,266c4,0,7.4,1.9,8.2,5c1.1,4-2.4,8.4-7.9,9.9l-25.6,7.1c-1.2,0.4-2.4,0.5-3.7,0.5c-4,0-7.4-1.9-8.2-5 c-1.1-4,2.4-8.4,7.9-9.9l25.6-7.1C329.1,266.2,330.3,266,331.6,266 M331.6,256.8c-2.1,0-4,0.2-6.1,0.9l-25.6,7.1 c-4.5,1.2-8.4,3.8-11.2,7.2c-3.3,4.1-4.5,9.3-3.2,14c1.9,7.1,8.8,11.7,17.1,11.7c2.1,0,4-0.2,6.1-0.9l25.6-7.1 c4.5-1.2,8.4-3.8,11.2-7.2c3.3-4.1,4.5-9.3,3.2-14C346.7,261.5,339.8,256.8,331.6,256.8z"></path> <path fill="#854F9F" d="M355.8,360.6c-2.3,0-4.8-0.5-6.9-1.5l-24.4-10.4c-7.7-3.3-11.6-10.7-8.9-16.9c1.8-4.1,6.1-6.7,11.5-6.7 c2.3,0,4.8,0.5,6.9,1.5l24.4,10.4c3.4,1.5,6.2,3.8,7.9,6.7c1.9,3.3,2.3,7.1,1,10.2C365.4,358,361.1,360.6,355.8,360.6z"></path> <path fill="#231F20" d="M326.9,329.6c1.7,0,3.4,0.4,5.1,1.1l24.4,10.4c5.2,2.2,8.2,7.1,6.5,10.8c-1.1,2.6-3.9,3.9-7.2,3.9 c-1.7,0-3.4-0.4-5.1-1.1l-24.4-10.4c-5.2-2.2-8.2-7.1-6.5-10.8C320.8,331.1,323.6,329.6,326.9,329.6 M326.9,320.5 c-7.2,0-13.2,3.7-15.6,9.5c-3.7,8.5,1.3,18.6,11.3,22.9l24.4,10.4c2.8,1.2,5.8,1.8,8.8,1.8c7.2,0,13.2-3.7,15.6-9.5 c3.7-8.5-1.3-18.6-11.3-22.9l-24.4-10.4C332.9,321.1,329.9,320.5,326.9,320.5z"></path> <g> <path fill="#EA6F26" d="M310.1,440.8c-0.6,0-1.1,0-1.6-0.1c-3.4-0.6-6.3-2.8-8-6.3c-1.5-3-1.9-6.7-1.3-10.4l4.3-26.2 c1.2-7.4,6.6-12.8,12.7-12.8c0.6,0,1.1,0,1.6,0.1c6.7,1.1,10.8,8.4,9.5,16.6l-4.3,26.2C321.6,435.4,316.3,440.8,310.1,440.8z"></path> <path fill="#231F20" d="M316,389.7c0.2,0,0.6,0,0.9,0.1c4,0.6,6.6,5.7,5.7,11.3l-4.3,26.2c-0.9,5.1-4.4,9-8.2,9 c-0.2,0-0.6,0-0.9-0.1c-4-0.6-6.6-5.7-5.7-11.3l4.3-26.2C308.8,393.5,312.3,389.7,316,389.7 M316,380.5c-8.4,0-15.6,7.1-17.2,16.7 l-4.3,26.2c-0.7,4.6-0.1,9.3,1.8,13.2c2.4,4.8,6.6,7.9,11.5,8.8c0.7,0.1,1.6,0.2,2.4,0.2c8.4,0,15.6-7.1,17.2-16.7l4.3-26.2 c0.7-4.6,0.1-9.3-1.8-13.2c-2.4-4.8-6.6-7.9-11.5-8.8C317.7,380.6,316.8,380.5,316,380.5z"></path> </g> <g> <path fill="#20A8E1" d="M367.9,459.3c-7.2,0-12.9-4.3-13.8-10c-0.5-3.4,0.9-6.9,3.5-9.6c2.4-2.3,5.7-3.9,9.4-4.4l26.2-3.8 c0.9-0.1,1.7-0.2,2.7-0.2c7.2,0,12.9,4.3,13.8,10c1,6.7-4.8,12.8-13,14l-26.2,3.8C369.7,459.3,368.9,459.3,367.9,459.3z"></path> <path fill="#231F20" d="M396,435.9c4.8,0,8.7,2.4,9.1,6.1c0.6,4-3.5,8-9.1,8.8l-26.2,3.8c-0.7,0.1-1.3,0.1-1.9,0.1 c-4.8,0-8.7-2.4-9.1-6.1c-0.6-4,3.5-8,9.1-8.8l26.2-3.8C394.7,436,395.4,435.9,396,435.9 M396,426.8c-1.1,0-2.2,0.1-3.3,0.2 l-26.2,3.8c-10.8,1.6-18.2,10-16.9,19.3c1.1,8,8.9,14,18.3,14c1.1,0,2.2-0.1,3.3-0.2l26.2-3.8c4.6-0.6,8.9-2.7,11.9-5.7 c3.8-3.7,5.6-8.7,4.9-13.5C413.2,432.6,405.5,426.8,396,426.8L396,426.8z"></path> </g> <g> <path fill="#F1DF0C" d="M446.6,520.1c-6,0-11.3-5.2-12.7-12.6l-4.9-26.1c-1.6-8.2,2.4-15.6,9.1-16.8c0.6-0.1,1.2-0.1,1.8-0.1 c6,0,11.3,5.2,12.7,12.6l4.9,26.1c1.6,8.2-2.4,15.6-9.1,16.8C447.8,520,447.2,520.1,446.6,520.1z"></path> <path fill="#231F20" d="M439.9,469.2c3.7,0,7.2,3.7,8.2,8.8l4.9,26.1c1.1,5.6-1.3,10.7-5.4,11.5c-0.4,0.1-0.7,0.1-1,0.1 c-3.7,0-7.2-3.7-8.2-8.8l-4.9-26.1c-1.1-5.6,1.3-10.7,5.4-11.5C439.2,469.2,439.5,469.2,439.9,469.2 M439.9,459.9 c-1,0-1.8,0.1-2.7,0.2c-9.1,1.7-14.7,11.5-12.8,22.2l4.9,26.1c1.8,9.4,9,16.3,17.2,16.3c0.9,0,1.8-0.1,2.7-0.2 c9.1-1.7,14.7-11.5,12.8-22.2l-4.9-26.1C455.4,466.7,448.1,459.9,439.9,459.9z"></path> </g> <g> <path fill="#77C046" d="M506.1,521.6c-1.2,0-2.4-0.2-3.5-0.6c-3.3-1.2-5.7-4-6.7-7.7c-0.9-3.2-0.7-6.9,0.6-10.4l9.1-24.9 c2.3-6.2,7.4-10.4,12.9-10.4c1.2,0,2.4,0.2,3.5,0.6c3.3,1.2,5.7,4,6.7,7.7c0.9,3.2,0.7,6.9-0.6,10.4l-9.1,24.9 C516.7,517.4,511.6,521.6,506.1,521.6z"></path> <path fill="#231F20" d="M518.5,472.2c0.6,0,1.3,0.1,1.9,0.4c3.9,1.5,5.4,6.8,3.4,12.2l-9.1,24.9c-1.6,4.4-5.2,7.3-8.5,7.3 c-0.6,0-1.3-0.1-1.9-0.4c-3.9-1.5-5.4-6.8-3.4-12.2l9.1-24.9C511.6,475.1,515.1,472.2,518.5,472.2 M518.5,463 c-7.3,0-14.3,5.4-17.2,13.4l-9.1,24.9c-1.6,4.4-1.8,9-0.7,13.3c1.5,5.1,5,9,9.6,10.7c1.6,0.6,3.4,0.9,5.1,0.9 c7.3,0,14.3-5.4,17.2-13.4l9.1-24.9c3.8-10.2-0.1-20.7-8.9-24C521.9,463.3,520.2,463,518.5,463L518.5,463z"></path> </g> <g> <path fill="#854F9F" d="M601.9,471.9l-26.4-1c-3.7-0.1-7.2-1.3-9.9-3.4c-3-2.3-4.8-5.7-4.6-9.1c0.2-6.5,6.6-11.6,14.6-11.6h0.6 l26.4,1c3.7,0.1,7.2,1.3,9.9,3.4c3,2.3,4.8,5.7,4.6,9.1c-0.2,6.5-6.6,11.6-14.6,11.6H601.9z"></path> <path fill="#231F20" d="M575.5,451.4h0.5l26.4,1c5.6,0.2,10.1,3.7,10,7.8c-0.1,4-4.5,7.1-10,7.1H602l-26.4-1 c-5.6-0.2-10.1-3.7-10-7.8C565.7,454.6,570.1,451.4,575.5,451.4 M575.5,442.2c-10.5,0-18.9,7.1-19.1,16c-0.1,5,2.2,9.6,6.3,12.9 c3.4,2.7,7.8,4.3,12.6,4.4l26.4,1h0.9c10.5,0,18.9-7.1,19.1-16c0.1-5-2.2-9.6-6.3-12.9c-3.4-2.7-7.8-4.3-12.6-4.4l-26.4-1H575.5z"></path> </g> <g> <path fill="#EA6F26" d="M652.2,434.2c-5.1,0-10.1-3.5-12.8-9l-11.7-23.8c-1.6-3.3-2.2-6.9-1.7-10.2c0.6-3.8,2.8-6.8,5.8-8.4 c1.5-0.7,2.9-1.1,4.5-1.1c5.1,0,10.1,3.5,12.8,9l11.7,23.8c1.6,3.3,2.2,6.9,1.7,10.2c-0.6,3.8-2.8,6.8-5.8,8.4 C655.4,433.8,653.8,434.2,652.2,434.2z"></path> <path fill="#231F20" d="M636.3,386.3c3.2,0,6.7,2.4,8.7,6.5l11.7,23.8c2.6,5.1,1.6,10.6-2.2,12.4c-0.7,0.4-1.6,0.6-2.6,0.6 c-3.2,0-6.7-2.4-8.7-6.5l-11.7-23.8c-2.6-5.1-1.6-10.6,2.2-12.4C634.6,386.4,635.5,386.3,636.3,386.3 M636.3,377 c-2.3,0-4.5,0.5-6.6,1.6c-4.4,2.2-7.4,6.5-8.4,11.7c-0.7,4.3,0,8.9,2.1,13l11.7,23.8c3.5,7.1,10.1,11.6,16.9,11.6 c2.3,0,4.5-0.5,6.6-1.6c4.4-2.2,7.4-6.5,8.4-11.7c0.7-4.3,0-8.9-2.1-13l-11.7-23.8C649.9,381.6,643.2,377,636.3,377z"></path> </g> <g> <path fill="#20A8E1" d="M659.3,350.7c-3.8,0-7.1-1.6-9-4.3c-2.1-2.8-2.7-6.5-1.5-10.1c1-3.2,3.2-6.2,6.1-8.4l21.2-16 c3-2.3,6.6-3.5,10-3.5c3.8,0,7.1,1.6,9,4.3c4,5.4,2.1,13.5-4.6,18.5l-21.1,16C666.3,349.5,662.8,350.7,659.3,350.7z"></path> <path fill="#231F20" d="M686.1,313.1c2.2,0,4.1,0.9,5.4,2.4c2.4,3.3,0.9,8.7-3.7,12.1l-21.2,16c-2.3,1.7-4.9,2.6-7.3,2.6 c-2.2,0-4.1-0.9-5.4-2.4c-2.4-3.3-0.9-8.7,3.7-12.1l21.2-16C681.1,313.9,683.7,313.1,686.1,313.1 M686.1,303.9 c-4.4,0-9,1.6-12.8,4.5l-21.2,16c-3.8,2.8-6.5,6.6-7.7,10.7c-1.6,5.1-0.7,10.2,2.2,14.3c2.9,3.9,7.6,6.1,12.8,6.1 c4.4,0,9-1.6,12.8-4.5l21.2-16c8.7-6.6,11.1-17.5,5.5-25C695.9,306.1,691.2,303.9,686.1,303.9L686.1,303.9z"></path> </g> <g> <path fill="#F1DF0C" d="M654.7,274.6c-2.7,0-5.4-0.6-7.8-1.9l-23.6-11.9c-7.4-3.8-10.8-11.3-7.8-17.4c1.9-3.8,6-6,10.8-6 c2.7,0,5.4,0.6,7.8,1.9l23.6,11.9c7.4,3.8,10.8,11.3,7.8,17.4C663.6,272.4,659.6,274.6,654.7,274.6z"></path> <path fill="#231F20" d="M626.1,241.9c1.8,0,3.9,0.5,5.7,1.5l23.6,11.9c5,2.6,7.7,7.6,5.8,11.2c-1.1,2.3-3.7,3.5-6.7,3.5 c-1.8,0-3.9-0.5-5.7-1.5l-23.6-11.9c-5-2.6-7.7-7.6-5.8-11.2C620.6,243.1,623.2,241.9,626.1,241.9 M626.1,232.8 c-6.7,0-12.2,3.2-14.9,8.5c-4.1,8.3,0.1,18.8,9.9,23.6l23.6,11.9c3.2,1.6,6.6,2.4,9.9,2.4c6.7,0,12.2-3.2,14.9-8.5 c4.1-8.3-0.1-18.8-9.9-23.6L636,235.2C632.9,233.5,629.5,232.8,626.1,232.8z"></path> </g> <g> <path fill="#231F20" d="M446.2,5l28-3.9l1.2,8.5l-16.8,2.3l1.1,7.6l13.4-1.8l1.2,8.4L461,27.9l2.4,17.3l-11.2,1.6 C452.2,46.8,446.2,5,446.2,5z M502.4,0h9.6l17.5,42.2h-11.3l-3.5-9L499.1,33l-3.5,9h-11L502.4,0z M512,25.8l-5-13.3l-5.1,13.3H512z M567.6,44.8l1.1,3.4c1.1,3.3,2.7,4.8,5.4,5.2c0.9,0.1,1.6,0.2,2.4,0l-1.2,6.8c-1.3,0.2-3.7,0.4-5.2,0.1 c-5.2-0.9-9.7-3.4-11.8-10.8l-1.2-4.4c-12.4-2.3-21-13.2-18.8-25.8s14.1-20.1,26.8-17.9c12.6,2.2,21.2,13.2,19,25.8 C582.5,36.4,575.9,43,567.6,44.8z M572.1,25.2c1.3-7.9-1.8-13.9-8.8-15c-6.9-1.2-12.1,3.3-13.4,11.2s1.8,13.9,8.9,15.1 C565.8,37.7,570.8,33.1,572.1,25.2L572.1,25.2z"></path> </g> </svg> 