<svg id="Layer_1" xmlns="http://www.w3.org/2000/svg" viewBox="0 0 374.6 224.3"><style>.st0{fill:none;stroke:#EC2586;stroke-width:5.1555;stroke-miterlimit:10;} .st1{fill:none;stroke:#334A8C;stroke-width:5.1555;stroke-miterlimit:10;} .st2{fill:none;stroke:#1DA7DF;stroke-width:5.1555;stroke-miterlimit:10;} .st3{fill:none;stroke:#844E9E;stroke-width:5.1555;stroke-miterlimit:10;} .st4{fill:none;stroke:#52AE48;stroke-width:5.1555;stroke-miterlimit:10;} .st5{fill:none;stroke:#F0DE0C;stroke-width:5.1555;stroke-miterlimit:10;} .st6{fill:none;stroke:#E96E26;stroke-width:5.1555;stroke-miterlimit:10;} .st7{fill:none;stroke:#DB2127;stroke-width:5.1555;stroke-miterlimit:10;} .st8{fill:#F0DE0C;stroke:#221F1F;stroke-width:3.25;stroke-linecap:round;stroke-linejoin:round;stroke-miterlimit:10;}</style><path class="st0" d="M290 106.3C290 49 243.6 2.6 186.3 2.6S82.7 49 82.7 106.3"/><path class="st1" d="M235.8 106.3c0-27.3-22.2-49.5-49.5-49.5s-49.5 22.2-49.5 49.5"/><path class="st2" d="M224.9 106.3c0-21.3-17.3-38.6-38.6-38.6s-38.6 17.3-38.6 38.6"/><path class="st3" d="M214.2 106.3c0-15.4-12.5-27.9-27.9-27.9s-27.9 12.5-27.9 27.9"/><path class="st4" d="M246.7 106.3c0-33.3-27-60.3-60.3-60.3s-60.3 27-60.3 60.3"/><path class="st5" d="M257.9 106.3c0-39.5-32-71.5-71.5-71.5s-71.5 32-71.5 71.5"/><path class="st6" d="M268.9 106.3c0-45.6-36.9-82.5-82.5-82.5s-82.5 36.9-82.5 82.5"/><path class="st7" d="M279.6 106.3c0-51.5-41.7-93.2-93.2-93.2s-93.2 41.7-93.2 93.2"/><path class="st8" d="M252.1 42.4c-1.8-7.8-7.8-13.9-15.4-15.9 7.6-2.1 13.5-8.4 15.2-16.2 1.8 7.8 7.8 13.9 15.4 15.9-7.7 2.2-13.6 8.4-15.2 16.2z"/><g><path d="M55 132.6c-3 9.5-15.6 15-23.7 19.1-2.2 1.1-4.3 1.9-6.5 2.7-2.4.8-5.8 1-7.8 2.1-1.2.6-1 1.2-.8 3 .2 1.2.4 2.6.8 3.6.8 2.4 3.1 4.4 5.7 5.3 2 .6 4.2.8 7 .5 3.1-.4 5.1-1.4 6.4-3.4 1.5-2.2 2.5-4.7 4.5-6.6 2-1.8 6.9-3 7.4 1.2.5 2.7-2.6 5.8-4.4 7.4-2.2 2-4.1 2.7-5.2 5.4-1.3 2.7-2.4 5.3-3.5 7.9-.3.8-1.8 3.2-1.7 4 .1.6 1.7 1.5 2.7 2.2 2 1.6 10.6 9.3 7 12.5-2.8 2.4-4.7-2.2-5.6-3.5-1.9-2.9-4-4.9-6.3-6-3.6 8-9.6 23.9-20 24.6-6.1.4-10.6-4.1-9.9-10.1.6-5.2 4.2-10.6 8.1-13.9 4.6-3.7 9.5-5.9 14.7-6.5 1-.2 2.3 0 3.1-.3 1.4-.4 1.3-1 2-2.8l3.3-7.5c-10.4 2.6-21.2-3.5-21.5-15.2-.1-2 .1-1.5-1.7-1.9-1.2-.3-2.4-.9-3.4-1.5-2.3-1.3-4-3.3-5.1-6.3-1.7-4.6-.5-11.5 4.4-13.9 2.8-1.4 7 1.2 4 4-1 1-2.2.8-2.9 1.7-.8 1.2-1 3-.9 4.4.3 2.8 1.5 4.8 3.8 6 3.3 1.7 2.6-.6 3.7-3.8 3.5-9.7 10.4-18.6 19.7-23.4 4.4-2 9.8-4.1 14.7-3.3 5.6 1.1 9.6 7.1 7.9 12.3zm-29.1 56.6c-4.5.4-9.5 2.7-13.9 6.4-3.1 2.5-7.7 8.4-5 12.5 3.3 5.1 9.5-2.2 11.5-5.2 2.9-4.4 5.1-9 7.4-13.7zM50 129.1c-.6-2.2-2.4-3.6-4.5-3.5-13.8 1-25.2 12.7-28.5 25.7 6.8-1.3 14.1-4.5 22-9.7 3.3-2.3 6.6-4.5 9.2-7.6 1.2-1.5 2.4-2.6 1.8-4.9zM51.3 176.3c-.8-2.6-1.3-5.2-1.1-7.8.3-4 2.6-8.4 4.9-11.8 2.9-4 6-6.2 10.3-6.2 2.8 0 6.1 2.8 7.4 5.4 1.8 3.9 1.7 7.7 1.3 12-.4 3.9-.3 4.5.8 4.2 1.5-.4 2.9-1.2 4-2.2 4.2-3.7 3.9-3.8 7.6-7.7 2.6-2.7 4.7 1.9 3.5 3.3-3.1 3.1-4.1 4.3-6.3 6.5-1.3 1.3-8.5 6.3-13.2 5.6-2.8 4.8-10.6 7.3-14.5 5-2.5-1.4-3.7-3.5-4.7-6.3zm13.5 0c-3.8-1.7-6.1-4.8-7.8-8.4l-.4-.8c-.4-1.7-1.5 1.6-1.5 2.8-.2 2.5.3 4.5 1.2 5.9 1.2 1.8 3.4 3.5 6.7 2.3.9-.5 2.8-1.3 1.8-1.8zm3.6-5.9c.9-2.8 2.1-6.8 1.2-9.9-.3-.8-.4-1.3-.8-2-.3-.4-.5-1-.8-1.4-1.7-2.2-3.5-1.7-5.5.1-.8.6-1.2 1.6-1.8 2.5-.8 1.1-.9 2.2-.9 2.2.1 3.2 2.8 9.2 5.7 10 1.4.4 2.4-.1 2.9-1.5z"/><path d="M84.3 176.3c-.8-2.6-1.3-5.2-1.1-7.8.3-4 2.6-8.4 4.9-11.8 2.9-4 6-6.2 10.3-6.2 2.8 0 6.1 2.8 7.4 5.4 1.8 3.9 1.7 7.7 1.3 12-.4 3.9-.3 4.5.8 4.2 1.5-.4 2.9-1.2 4-2.2 4.2-3.7 3.9-3.8 7.6-7.7 2.6-2.7 4.7 1.9 3.5 3.3-3.1 3.1-4.1 4.3-6.3 6.5-1.3 1.3-8.5 6.3-13.2 5.6-2.8 4.8-10.6 7.3-14.5 5-2.6-1.4-3.7-3.5-4.7-6.3zm13.4 0c-3.8-1.7-6.1-4.8-7.8-8.4l-.4-.8c-.4-1.7-1.5 1.6-1.5 2.8-.2 2.5.3 4.5 1.2 5.9 1.2 1.8 3.4 3.5 6.7 2.3 1-.5 2.9-1.3 1.8-1.8zm3.6-5.9c.9-2.8 2.1-6.8 1.2-9.9-.3-.8-.4-1.3-.8-2-.3-.4-.5-1-.8-1.4-1.7-2.2-3.5-1.7-5.5.1-.8.6-1.2 1.6-1.8 2.5-.8 1.1-.9 2.2-.9 2.2.1 3.2 2.8 9.2 5.7 10 1.5.4 2.4-.1 2.9-1.5z"/><path d="M136.7 180c-.4-.8-1.1-.8-1.5-.3-.6.6-2.4 1.9-3.1 2.2-6.5 3.1-11.4 1.7-13.8-6.7-1.9-7 .6-13.1 4.8-18.1 1.5-1.7 6.8-4.5 10.6-1.3.8.7.5-.6 1.3-3.7 2.2-12.9 4.6-18.2 11.3-29 1.4-2.3 6-6.1 9.1-6.1 4 0 5.2 3.3 4.4 10-.9 7.3-6.4 16.3-11.2 25.5-4.4 7-6.5 12.5-7.6 17.7-.5 2.8-.3 6.5 1.9 6.5 2.3 0 6.7-4.7 10.8-9.5 1.9-2.2 4-3.5 5.4-2.9 1.1.4 1.7 2.2-.9 4.9-4.2 4.5-12.1 14-15.9 14-3.2 0-4.6-1.6-5.6-3.2zm-3.8-8.6c.8-3.1 1.1-7.1 0-10-.6-1.7-2.9-2.4-4.3-2-4.2 1.3-6.5 9.9-5.6 14.3.6 2.8 2.6 4.5 4.7 4.1 2.1-.3 4.7-4.2 5.2-6.4zm7.9-15.2c9.2-16.1 14-27 14.5-32.9.1-.3.1-.8.2-1.2-.4-.5-.6-1-1.2-.6-.5.4-1.1.9-1.5 1.4-8.2 11.1-13 23.2-13.6 33 0 .3-.1 1 .4 1.2.8.2 1-.4 1.2-.9z"/><path d="M152.8 195.1c3.6-3.8 7.2-6.8 14-10 1.6-.8 3.5-3.3 3.9-4.7.5-2 1.1-3.6 1.1-4-1.5 1.2-6.8 5.9-11.8 5.9-8.4 0-8.1-12.8-2.6-25.6 1.2-2.7 2.9-4.3 4.9-3.5 1.7.6 2.2 2.4-1.2 10.4-2.7 6.2-3.2 13.6.6 13.6 4.4 0 12.2-8.3 14.1-13.6.8-2.2 1.6-4.2 2.4-6 .6-1.3 1.5-2.7 3.6-1.5 2.2 1.1 1.5 2.6 1.2 4-1.3 4-2.8 7.8-3.9 11.9-.5 1.6-2.1 3.7-.4 4.9.8.5 1.8.2 3.3-1 2.9-2.6 7.3-6.6 9.5-8.8 7-6.7 8.1-1.3 4.9 1.8-7.3 6.7-8.7 8.1-16 13.6-3.8 2.9-6.5 5.7-7.6 10.4-1.5 6.5-4.4 12.9-7.6 18.8-4.8 8.6-8.6 13.7-16 11.6-7-2-4-19.9 3.6-28.2zm14.6-3.9c.2-.9-.3-1.4-1.2-1-9.6 3.9-13.2 14-14.6 18.9-1.4 5.1-1 10.6 1.9 8.7 6.3-4.1 11.3-16.1 13.9-26.6zM225.1 189.4c-2.6-9.1.3-20.1 7.9-27.5 6.5-6.3 15.2-8.6 23-7 1.2.3 1.8.5 2.6-.8 2.2-4 5.4-8.6 6.8-11.2.9-1.6 2-3.1 3.1-4.6l1.4-1.8c.7-1.3 1.6-2 2.7-2.5.4-.1 1.5-.6 2.8.4 1.2.9 1.2 2.2.3 3.6-1.5 1.9-2.9 3.8-5.2 7.8-.1.3-.2.4-.2.5l.6-.3c7.9-1 13.4-3.5 17.5-8.1 2.3-2.6 3.3-4.8 3.2-7.4.1-2.4-.7-3.5-3.3-4.2-4-1.2-8.1-.8-13.1 1.4-13.3 5.2-15.7 9-23 16.3-.9 1.1-1.9 1.7-2.8 1.7-.6-.1-1.2-.4-1.7-1-1.2-1.3-.6-3 .9-4.7.7-.8 1-1.3 2.2-2.5 8.7-8.1 16.6-13.1 25-15.9 9.5-3.3 20.9-2.3 21.7 6.9.3 4.9-1.4 9-4.7 12.2-3.9 4-7.6 6.5-11.7 8.1l-.1.6c5.9 4.2 8.6 10.6 8 19.2-.6 10.2-4.9 18.6-12.7 25.3-3.1 2.8-6.8 5.4-11.5 8.2-4.8 2.8-10.5 4.2-17.4 4.2-3.6 0-5.3-.3-8.8-1.3-7-2.1-11.1-7.1-13.5-15.6zm45.1 2.6c6.8-5.3 10.9-11.5 12-18.8 1-5.5.4-10.2-1.9-14.7-1.1-2-2.6-3.4-4.5-4.3-2.8-1.2-6.5-2.9-8.8-3.1-.2 0-3.6 5.4-3.5 5.6 0 .1 2 1.6 3.2 2.4 1.8 1.3 2.8 3.1 1.1 5.4-2.2 2.8-4.6-1-7.9-2.3l-.4 1.2c-.8 1.4-1.5 2.7-2.2 4-.4 1-1 1.8-1.4 2.7l-1.3 2.2c-1.7 2.8-3.3 5.8-4.9 8.6-1.5 2.6-3.3 3.7-5 2.6-2.6-1.3-.4-4.7 1.7-8.4 1.5-2.8 3.1-5.4 4.5-8.1l3.6-7-1.9-.2c-15.1-.5-24.2 15.9-21.8 27.8 1.2 6.2 4.4 10 9.7 11.6 2 .6 8.8 2.1 14.6.5 5.5-1.5 10.1-3.9 15.1-7.7zM295.9 172.8c0-7 8.1-17.2 18-17.2 3.1 0 6.1 1.8 7.2 4 .3.6 1.1-.5 1.4-.8s.8-1.2 1.2-1.7c.8-1.4 5.8-.1 5.2 1.2-2 4.6-6.4 11.3-8.4 16.2-1.5 3.6.1 5.2 1.3 5.2 2.4 0 9-6.8 15.2-13.1 1-1 2.2-1.9 3.8-.6 1.4 1.2.7 2.9-.5 4-5.4 5.1-11.8 14.3-18.6 14.3-4.3 0-6-3.9-7-5.9-.1-.2-.2 0-.6.3-1.7 1.2-6 5.2-9.9 5.2-6.7-.1-8.3-5.4-8.3-11.1zm17.4-13.3c-5.2 0-12.2 6.9-12.2 14.3 0 2.9 1.4 5.1 3.6 5.1 5.6 0 9.7-6.4 12.4-12.3 1.9-4.2-1.4-7.1-3.8-7.1z"/><path d="M324.7 221.3c-4.7-7.2-3.3-14.5 5-22.9 3.9-4 12-8.8 17.2-10.9 1.5-.6 1.1-1.7 2.3-4.7.3-.8-.1-1.3-1.1-1-1.2.3-2.4.7-3.5.9-5.2.8-7.6-1.4-8.9-6.6-.4-1.6-.2-3.3.1-4.8 1.3-8.6 4.1-12.9 11.1-17.3 1.6-1.1 5.8-2.5 8-1.7 2.5 1 3.6 1.9 4.7 4.7.1.3.6.6 1 .4 1.3-.8 4.1.6 3.9 2.5-.4 2.1-.8 4.1-1.7 6-2.2 4.9-5.8 12.1-8 17.1 6.8-6.8 11.3-12 14.8-16.1 1.7-2 3.2-2.1 4.2-1.3 1.1.8 1.3 2.4-.5 4.4-6.3 6.7-9.6 11.2-17.1 17.2-2.8 2.2-3.2 3.7-3.4 4.4-1.1 4-3.5 11.5-7.2 19.8-1.5 3.3-4.8 9.4-8 11.4-4 2.2-10.4 2.2-12.9-1.5zm12.1-5.3c3.7-5.6 8.3-14.4 9.7-22.3.2-1.3-1-.5-2.3 0-7.4 2.6-12 9.3-14.5 12.8-1.7 2.4-2.7 5.4-2.5 8.4.5 2.5 1.7 4.2 2.9 4.7 1.8.9 4.9-1 6.7-3.6zm13.4-41.3c2.2-2.6 3.9-5.3 4.7-6.9 1.3-2.4 2.5-5.7.5-8.3-5.1-5.1-10 2.2-11.8 4.7-2.1 2.9-3.1 6.3-2.9 9.9.5 3.5 1.7 4.3 4.5 3.5 1.7-.6 3.9-1.5 5-2.9z"/></g></svg>