<svg xmlns="http://www.w3.org/2000/svg" id="Layer_1" viewBox="0 0 353.1 68"> <style>.st0{fill:#201D1E;stroke:#000000;stroke-width:0.3169;stroke-miterlimit:10;} .st1{fill:#211E1F;} .st2{fill:#16A9E1;} .st3{fill:#52AF47;} .st4{fill:#F3DF06;} .st5{fill:#E96C25;} .st6{fill:#EA4993;} .st7{fill:#834C9C;}</style> <path class="st0" d="M184.8 34.2c-.4-.8-1-2.1-1.8-3.6-1.3-2.5-3.2-6.2-3.3-7 .1-.2.5-.7.6-.9.1-.2.3-.4.5-.6 1.4-1.8 3.8-4.8 3.9-9.5.1-2.9-.9-5.4-2.8-7.4-3.4-3.3-9.4-4.9-17.9-4.5-3.5.1-8.7.3-9.1 3.8-.1.9-.1 9.8-.1 22.2V36.9c0 3.5 3.5 3.6 3.6 3.6h1.8c3.7 0 5.5 0 6.3-.8.8-.8.8-2.1.8-4.2v-4.7-1.7c0 .1.1.1.1.2.3.8.7 1.6 1.1 2.4.5.9.9 1.7 1.3 2.5 2 4 3.3 6.4 5 6.4h4.7c2.1 0 4.1 0 4.8-.1.7-.1 1.6-.5 1.9-1.2.5-1-.1-2.7-.4-3.4-.3-.2-.6-.8-1-1.7zm-19.7 2c0 .8 0 1.2-.2 1.5-.4.4-1.4.6-3.1.6-2.4 0-3.8-.3-4.3-.8-.3-.3-.3-.6-.3-1.1v-.5-9.2c0-7.9-.1-21.1.1-21.9.1-1.1 2.7-1.8 6.9-1.8 7.5-.3 13.2 1.1 16.2 4 1.5 1.5 2.3 3.4 2.2 5.6-.1 4-2.1 6.5-3.4 8.2-.2.2-.3.4-.5.6-.5.7-.9 1.2-1.1 1.8-.1.7.5 2 2 5.1.9 1.8 2 4 3.3 6.9v.1c.3.8.6 1.3.7 1.5.1.3.4 1 .3 1.3 0 0-.1.1-.2.1-1.2.2-8 .2-8.6.1-.7-.1-3.1-4.3-4.6-7.7-.7-1.6-1.4-3-1.9-3.9-.2-.3-.7-1.2-1.6-1.2-1.1 0-1.4 1.1-1.6 2.3-.2 1.5-.2 4-.2 7.7-.1.3-.1.5-.1.7zM25.7 1.3h-2c-4.1 0-13.8-.1-17 0-.9 0-1.5.1-1.9.1h-.7c-1.4 0-2.4.3-3 .9-1 1-.9 2.5-.9 4.3v3c0 2.3 0 5.7.1 9.3v17c0 2.1 0 3.3.7 3.9.4.4 1.1.6 2.3.6h8.1c1.9 0 2.9-.6 2.9-4v-7.6c0-.7.6-.8 1.1-.8h3.8c3.2 0 4.7-.2 4.7-5.2v-.3c0-1.2 0-3.5-.9-4.5-.3-.3-.7-.5-1.2-.5h-6.7c-.6 0-1.2 0-1.4-.2 0 0-.1-.1-.1-.5v-2.2c0-.6.4-.6.5-.6h12.3c1.3-.1 2.5-.2 3.2-1 .9-1 .8-2.2.8-2.7V5c0-3.3-2.3-3.7-4.7-3.7zm2.2 9.7c-.3.3-.4.5-1.7.5H13.9c-1.2 0-1.9.3-2.4.9-.3.5-.3 1.2-.3 1.8V16c0 1.4 0 2.3.6 2.9.5.5 1.2.6 2.7.6H20.2c.4 0 1.2 0 1.2 2.9 0 2.6-.6 2.9-1.2 2.9h-5.7c-.7 0-1.6.1-2.2.7-.4.4-.6 1.1-.6 2v8.1c0 1-.1 1.4-.3 1.5-.1.1-.2.1-.5.2H3.3c-1 0-1.1 0-1.1-2.2V35v-6.1-10.2c0-5.8 0-10.8-.1-11.9.3-1.2.5-2.1.9-2.6.4-.4.9-.5 1.8-.5h2.5c5.2 0 17.1-.1 18.3-.1h.1c2 0 2.3.3 2.3 1.3v5c.1.3.1.9-.1 1.1zM61.5 27.4h-1.3c-1 0-1.7 0-3.6-.1h-6.2c0-1.1 0-4.5-.1-8.2 0-5.7-.1-12.2-.1-13.4 0-4.1-3.3-4.4-7.6-4.4-3.1 0-4.6.3-5.4 1.1-.7.7-.7 1.7-.7 3V34.7c0 2 .5 3.5 1.4 4.5 1.2 1.1 2.7 1.2 3.7 1.2h20.6c2.9 0 3.5-1.5 3.5-2.7v-2.5c0-1.1.1-2.3.1-3.7 0-4.1-2.2-4.1-4.3-4.1zM38.7 5.6c0-.7 0-1.1.3-1.4.4-.4 1.5-.6 3.7-.6 4.7 0 5.1 1 5.1 2.2V8c0 4.1-.1 12.6 0 17.3 0 1.4 0 2.1.1 2.5v.2c0 .5.1.9.4 1.2.5.5 1.4.5 2.6.5H56.7c1.8 0 2.6 0 3.6.1h1c2.3 0 2.5 0 2.5 2v4.8c0 1-.5 1.7-1.4 1.7H51.7h-9.3c-2.2 0-3.3-1.1-3.3-3.4V24.7c0-7.6-.1-17.2 0-18.5-.4-.3-.4-.5-.4-.6zM89.8 1.4c-11.1 0-20.1 8.6-20.1 19.2s9 19.2 20.1 19.2c11.1 0 20.1-8.6 20.1-19.2s-9-19.2-20.1-19.2zm17.7 19.2c0 9.3-8 16.9-17.8 16.9C80 37.5 72 30 72 20.6c0-9.3 8-16.9 17.8-16.9s17.7 7.6 17.7 16.9zM298.5 1.4c-11.1 0-20.1 8.6-20.1 19.2s9 19.2 20.1 19.2c11.1 0 20.1-8.6 20.1-19.2s-9-19.2-20.1-19.2zm17.8 19.2c0 9.3-8 16.9-17.8 16.9s-17.8-7.6-17.8-16.9c0-9.3 8-16.9 17.8-16.9s17.8 7.6 17.8 16.9zM140.8 1.3c-4.7 0-6.7 1.1-6.7 3.8 0 .4 0 3-.1 6.1 0 2.8 0 6 .1 8.2V22c0 2.7-.3 3.8-2.2 3.9-.8 0-1.5-.2-2-.6-.8-.8-.9-2.2-.9-2.4v-1.5c.1-2.8.2-8.5.1-12.6V6.3c-.1-4.8-4.3-4.8-6.1-4.8-1.2 0-2.9 0-4.3.4-1.7.6-2.6 1.7-2.6 3.3v19.6c0 4 1.3 7.7 3.6 10.5 2.8 3.4 7.1 5.2 12.3 5.2 11.4 0 15.6-9.4 15.6-15.7l-.1-18.4c0-3.5-1-5.1-6.7-5.1zm-13.2 24.4c.6 1.1 1.9 2.5 4.5 2.3 4.5-.2 4.4-4.3 4.4-6.3v-.5-2c-.1-2.1-.1-5.4-.1-8.1 0-2.7.1-5.7.1-6.1 0-.6 0-1.5 4.4-1.5 4.2 0 4.3.5 4.4 2.7l.1 18.5c0 .1-.6 13.4-13.3 13.4-10.1 0-13.7-7.2-13.7-13.4 0-2.9 0-13 .1-17.3V5.3c0-.6 0-1.6 4.3-1.6 2.7 0 4.3.8 4.3 2.1v2.9c.1 3.8-.1 9.7-.1 12.5v1.6c-.1.3-.1 1.6.6 2.9zM227.3 16.7l-.6-.3c-.4-.2-.8-.5-1.1-.6-.4-.3-1-.6-1.5-.9-.4-.2-.7-.4-.9-.5-.6-.4-.9-.8-.8-1.1.1-.3.6-.7 1.8-.8.4 0 1-.1 1.7-.1 1.8-.1 4.1-.2 4.9-.4 1.5-.5 1.5-1.4 1.5-2.9v-.2-5.6c0-1.3-1.5-2.3-4.6-2.8-2.2-.4-4.3-.4-4.4-.4h-.1c-4.6 0-7.3 1.2-8 1.6-4.4 2.3-6.8 6.2-7 11.6-.3 7.3 5 9.7 8.2 11.1 2.3 1 4 1.9 4 3 0 .1-.1.7-1.4.7-1 0-2.8-.2-6.9-2.3 0 0-3.5-1.5-5.5 3-.6 1.4-2.9 5.1-.5 7.3.6.6 6.9 5.5 15.5 4.6 5.1-.5 8.3-2.3 10.5-4.7 2-2.2 3-4.9 2.8-7.9-.3-7.3-4.7-9.8-7.6-11.4zm-4.5 11.1c.3-2.4-3.1-4.3-5.3-5.4l-.1-.1-.6-.3c-2.5-1.3-6.3-3.2-6.1-8.6.2-5.6 3.4-8.4 6-9.7 1-.5 3.4-1.2 6.7-1.3 1.3-.1 5.1 0 6.3 1.2.3.3.4.6.4.9v3.6c0 1-.2 1.5-.7 1.7-.3.1-1.7.1-2.8.1-1.6 0-3.3.1-4.1.2-.9.2-1.5.5-2.1 1-.4.4-.8 1.2-.7 1.8.1 1.6 1.7 2.8 3.1 3.5.4.2.9.5 1.5.9.3.2.7.5 1.2.7l.6.3c2.6 1.4 6.2 3.4 6.6 9.5.2 2.4-.6 4.7-2.2 6.5-3 3.6-8.9 3.9-8.9 3.9-7.1.9-12.5-2.7-13.5-3.5-1.9-1.4-.7-3.4.2-5.2.9-1.7 2-2.2 2.7-2.3.7-.1 1.4.3 2.4.9 2.1 1.3 4.3 1.8 5.4 1.8 2.3.4 3.8-.6 4-2.1zM273.5 4.7c0-4-5.1-4-7.1-4s-6.7.2-6.7 2.3V9.1c0 .7.1 1.9 0 2.3-.7.1-4 .1-5.1 0-.1-.3-.4-1.6-.4-7.5v-.1c0-3.1-4.3-3.1-5.7-3.1-3.3 0-7.3.5-7.3 3.1v.8c0 14.5 0 31.9.1 32.4.3 2.9 3.3 3.1 5.3 3.1h4.6c4.3 0 4.3-3.3 4.4-4.4v-.5-1.3-1.3-2.4-1.6c.4-.1.9-.1 1.9-.1 1.2 0 2.1.1 2.7.1V35.4c.2 4.4 1.6 4.6 6.7 4.6h.5c1.4 0 4 .1 5.4-1.2.5-.5.8-1.2.8-2v-1.6c0-1.2.1-2.6 0-3.6 0 .1-.1-24.6-.1-26.9zm-20.1 30.7v.3c0 1.5-.4 2.1-2.4 2.1h-3.3c-3.1 0-4-.2-4.1-1.1-.1-.7-.3-30.3-.3-32.3 0-1.3 1.4-1.8 4.9-1.9 3.9 0 4 1.1 4 1.6 0 .6.1 1.9.1 3.3 0 2.9 0 4.8.2 5.4.1.3.3.8 4.8.8h.2c1 0 2 0 2.8-.2 1-.2 1.5-.7 1.5-1.4V8.9c0-2.1.1-4.5.1-4.8 0-1.2 1.5-1.8 4.3-1.8 3.3 0 4.8.7 4.8 2.2 0 2.1.2 27 .2 27.2v4.7c0 .3-.1.5-.3.7-.9.9-3.6.8-4.5.7h-.2c-3.8-.2-3.8-.2-3.9-2.4v-.2-2.5V31v-1.8c0-1.2 0-1.7-.1-2v-.1c-.2-.7-.6-1.2-4.5-1.2-2.7 0-3.6.3-4 .5-.1.4-.5.5-.3 9zM337 .5c-1.6-.3-10.4-1.1-13.3 1.4-.6.5-.9 1.2-.9 1.9v7.1c-.1 9.9-.2 24.7-.1 25.8v.4c.1 2.1.5 3.5 4.8 3.6H330.9c5-.1 5.2-1 5.1-4.5v-1.4-4.7-4c5 0 16.6-2 16.9-11.3.4-11.6-9-13.2-15.9-14.3zm-3.2 33.4v1.9c0 1.2 0 1.9-.3 2.2-.4.4-1.5.4-3.6.4H329c-4 0-4.1-.8-4.1-1.6v-.4c-.1-1.1 0-20.9 0-28.4V4.7c0-.4.1-.7.5-.9 1.1-1 3.8-1.2 6.3-1.2 1.8 0 3.5.1 4.4.3 7.5.9 14.8 2.6 14.5 11.9-.3 9.1-15 9-15.2 9-.9 0-1.2.3-1.5.7-.1.3-.2 2-.1 9.4z"/> <g> <path class="st1" d="M33.5 65.5c-.6 0-1.2-.3-1.4-.6l-.3.5h-1l1.4-8h1.5l-.7 3.8c.4-.4.8-.6 1.4-.6 1.3 0 2 1.2 1.7 2.5-.2 1.4-1.2 2.4-2.6 2.4zm.4-3.8c-.6 0-1.2.5-1.3 1.4-.1.9.2 1.4.8 1.4s1.2-.5 1.3-1.4c.1-.9-.2-1.4-.8-1.4zM38.5 68H37l1.7-2.7-1.1-4.5H39l.7 3 1.7-3h1.4L38.5 68z"/> </g> <g> <path class="st2" d="M56 57.4h2.2l4 9.5h-2.5l-.8-2h-3.5l-.8 2H52l4-9.5zm2.2 5.8l-1.1-3-1.1 3h2.2z"/> <path class="st3" d="M74.7 57.4h2.9l2.6 6 2.6-6h2.8v9.5h-2.3v-5.2c0-.2 0-.9.1-1l-.3 1-2.1 5.2h-1.5l-2.1-5.2c-.1-.2-.3-.9-.3-1 0 .1.1.8.1 1v5.2H75v-9.5z"/> <path class="st4" d="M99 57.4h2.6v9.5H99v-9.5z"/> <path class="st5" d="M117.5 63.2v3.6h-2.6v-9.5h4.3c2.3 0 3.3 1.4 3.3 2.9 0 1.3-.7 2.3-1.8 2.7l2.8 3.9h-2.8l-2.5-3.6h-.7zm1.1-1.6c1 0 1.4-.4 1.4-1.2 0-.8-.4-1.3-1.4-1.3h-1.1v2.5h1.1z"/> <path class="st6" d="M138.8 57.4h2.2l4 9.5h-2.5l-.8-2h-3.5l-.8 2h-2.5l3.9-9.5zm2.2 5.8l-1.1-3-1.1 3h2.2z"/> <path class="st7" d="M157.5 57.4h2.6v3.4h3.7v-3.4h2.6v9.5h-2.6V63h-3.7v3.9h-2.6v-9.5zM194.4 66.9l-3.6-4.3v4.3h-2.6v-9.5h2.6v4.2l3.3-4.2h2.7l-3.7 4.5 4.3 5h-3z"/> <path class="st6" d="M212.8 57.4h2.2l4 9.5h-2.5l-.8-2H212l-.8 2h-2.5l4.1-9.5zm2.1 5.8l-1.1-3-1.1 3h2.2z"/> <path class="st5" d="M230.8 65.8l.6-1.9c.7.6 1.7 1.3 3 1.3.8 0 1.4-.3 1.4-1 0-.6-.4-.9-1.8-1.2-2.2-.5-2.9-1.7-2.9-3.1 0-1.7 1.4-2.8 3.5-2.8 1.2 0 2.4.4 3.1 1l-.5 1.7c-.7-.4-1.7-.8-2.6-.8-.7 0-1.1.3-1.1.8 0 .4.3.7 1.4 1 2.4.6 3.3 1.5 3.3 3.3 0 2.2-1.8 3.1-3.7 3.1-1.8-.1-3-.8-3.7-1.4z"/> <path class="st4" d="M250.3 65.8l.6-1.9c.7.6 1.7 1.3 3 1.3.8 0 1.4-.3 1.4-1 0-.6-.4-.9-1.8-1.2-2.2-.5-2.9-1.7-2.9-3.1 0-1.7 1.4-2.8 3.5-2.8 1.2 0 2.4.4 3.1 1l-.5 1.7c-.7-.4-1.7-.8-2.6-.8-.7 0-1.1.3-1.1.8 0 .4.3.7 1.4 1 2.4.6 3.3 1.5 3.3 3.3 0 2.2-1.8 3.1-3.7 3.1-1.8-.1-2.9-.8-3.7-1.4z"/> <path class="st3" d="M270.5 57.4h6.6v1.9h-4v1.6h3.2v1.9h-3.2v2.1h4v1.9h-6.6v-9.4z"/> <path class="st2" d="M290.2 57.4h2.9l2.6 6 2.6-6h2.8v9.5h-2.3v-5.2c0-.2 0-.9.1-1l-.3 1-2.1 5.2H295l-2.1-5.2c-.1-.2-.3-.9-.3-1 0 .1.1.8.1 1v5.2h-2.2v-9.5z"/> </g> <div xmlns="" id="divScriptsUsed" style="display: none"/><script xmlns="" id="globalVarsDetection" src="chrome-extension://cmkdbmfndkfgebldhnkbfhlneefdaaip/js/wrs_env.js"/></svg>