<svg id="Layer_1" xmlns="http://www.w3.org/2000/svg" viewBox="0 0 101.9 128"><style>.st0{fill:#010101;stroke:#231F20;stroke-miterlimit:10;} .st1{fill:#FFFFFF;} .st2{fill:#ECC91C;stroke:#231F20;stroke-miterlimit:10;}</style><path class="st0" d="M39.4 127.5c-.4 0-.7 0-1.1-.1h-.1c-4.2-1.1-5.9-5-4.5-10.8 1.3-5.8 6.2-14.1 9.6-13.4 3.5.7 3.9 10.2 2.7 16.2-1.1 5.2-3.5 8.1-6.6 8.1zm-.6-2.5c.6.1 2.4.4 3.9-3.2 2.4-6 1.3-15.2.1-16.2-1.6.3-6.5 7.5-7 13.7-.5 4.7 2.1 5.4 3 5.7z"/><path class="st1" d="M99.8 48.5c1-5.3-.5-11.5-5.6-13.5-5.2-2.1-11 .4-13.1 5.6l-2.8 7.9s-6-20.2-6.4-21.5C66 8 45.9-2.5 27 3.4 9.1 8.9-1.3 27.1 2.5 45c0 0 5.4 31.5 29.9 63l54.1-18.8 1.3-10.3c1-2.1 9.7-13.5 12-30.4z"/><path class="st0" d="M32 109.5l-.5-.7C7.1 77.4 1.4 45.6 1.3 45.2c-4-18.8 6.9-37.3 25.3-43.1C46.1-3.9 67 7 73.1 26.6c.3 1 3.6 12 5.4 17.9l1.5-4.3c1.1-2.8 3.3-5 6-6.2 2.8-1.2 5.8-1.2 8.6-.1 5.9 2.4 7.5 9.2 6.4 14.9-2 14.4-8.4 24.7-11.2 29.1-.4.6-.7 1.2-.9 1.5l-1.4 10.9L32 109.5zM37.6 3c-3.4 0-6.9.5-10.3 1.6C10.2 9.9 0 27.2 3.7 44.8c.1.4 5.6 31.2 29.1 61.8l52.5-18.3 1.2-9.8.1-.2c.2-.4.6-1 1.1-1.9 2.7-4.3 8.9-14.3 10.8-28.1v-.1c.9-4.7-.3-10.3-4.9-12.2-2.2-.9-4.6-.8-6.7.1-2.2.9-3.8 2.6-4.7 4.8l-4 11.4-1.1-3.6c-.1-.2-6-20.2-6.4-21.5C66.1 12.5 52.4 3 37.6 3z"/><path class="st1" d="M47 99l-15.2 4.7c-2.7.9-4.2 4-3.2 7.1 1 3.1 3.9 4.8 6.7 4l53.1-16.6c2.7-.9 4.2-4 3.2-7.1-1-3.1-3.9-4.8-6.7-4l-15.2 4.7"/><path class="st0" d="M33.9 116.2c-1.1 0-2.2-.3-3.2-.9-1.5-.9-2.7-2.4-3.2-4.2-1.2-3.7.7-7.6 4-8.6l15.2-4.7c.7-.2 1.3.2 1.5.8.2.7-.2 1.3-.8 1.5l-15.2 4.7c-2.1.7-3.2 3.1-2.4 5.5.4 1.2 1.1 2.2 2.1 2.8 1 .6 2 .7 3 .4L88 96.9c2.1-.7 3.2-3.1 2.4-5.5-.4-1.2-1.1-2.2-2.1-2.8-1-.6-2-.7-3-.4l-15.2 4.7c-.7.2-1.3-.2-1.5-.8-.2-.7.2-1.3.8-1.5L84.6 86c1.7-.5 3.4-.3 5 .6 1.5.9 2.7 2.4 3.2 4.2 1.2 3.7-.7 7.6-4 8.6L35.7 116c-.6.1-1.2.2-1.8.2z"/><path class="st2" d="M42.1 44.8L54 83"/><path class="st0" d="M54 84.2c-.5 0-1-.3-1.2-.9L40.9 45.1c-.2-.6.2-1.3.8-1.5.7-.2 1.3.2 1.5.8l11.9 38.2c.2.7-.2 1.3-.8 1.5-.1.1-.2.1-.3.1z"/><g><path class="st2" d="M57.8 48.8l6.7 30.8"/><path class="st0" d="M64.5 80.9c-.6 0-1.1-.4-1.2-1l-6.7-30.8c-.1-.7.3-1.3.9-1.5.7-.1 1.3.3 1.5.9l6.7 30.8c.1.7-.3 1.3-.9 1.5-.1.1-.2.1-.3.1z"/></g><g><path class="st2" d="M31.6 58l12.2 28.1"/><path class="st0" d="M43.8 87.4c-.5 0-.9-.3-1.1-.7L30.5 58.5c-.3-.6 0-1.4.6-1.6.6-.3 1.4 0 1.6.6l12.2 28.1c.3.6 0 1.4-.6 1.6-.2.1-.3.2-.5.2z"/></g></svg>