<?xml version="1.0" encoding="utf-8"?>
<!-- Generator: Adobe Illustrator 21.1.0, SVG Export Plug-In . SVG Version: 6.00 Build 0)  -->
<svg version="1.1" id="Layer_1" xmlns="http://www.w3.org/2000/svg" xmlns:xlink="http://www.w3.org/1999/xlink" x="0px" y="0px"
	 viewBox="0 0 45.3 61" style="enable-background:new 0 0 45.3 61;" xml:space="preserve">
<style type="text/css">
	.st0{fill:none;stroke:#211E1F;stroke-width:3;stroke-linejoin:round;stroke-miterlimit:10;}
	.st1{fill:#010101;stroke:#010101;stroke-miterlimit:10;}
</style>
<rect x="1.5" y="17.2" class="st0" width="42.3" height="42.3"/>
<path class="st0" d="M13.7,17.2c0-0.2,0-0.5,0-0.7v-6.1c0-4.9,4-8.9,8.9-8.9c2.5,0,4.7,1,6.3,2.6c1.6,1.6,2.6,3.8,2.6,6.3v6.1
	c0,0.2,0,0.5,0,0.7"/>
<g>
	<path class="st1" d="M31.8,40.8c-0.5,0-1,0.4-1,1c0,5.6-3.1,9-8.4,9c-5.2,0-8.3-3.4-8.3-9c0-0.5-0.4-1-1-1c-0.5,0-1,0.4-1,1
		c0,6.6,4,10.9,10.3,10.9c6.3,0,10.4-4.3,10.4-10.9C32.8,41.2,32.4,40.8,31.8,40.8z"/>
	<circle class="st1" cx="15.6" cy="32" r="1.9"/>
	<circle class="st1" cx="29.9" cy="32" r="1.9"/>
</g>
</svg>
