<?xml version="1.0" encoding="UTF-8"?> <svg xmlns="http://www.w3.org/2000/svg" width="54" height="54" viewBox="0 0 54 54"> <g fill="none" fill-rule="evenodd"> <rect stroke-width="3" width="50" height="50" rx="6" stroke="#231F20" stroke-linecap="round" stroke-linejoin="round" transform="translate(2 2)"></rect> <path d="M36.238 37.265l1.7 4.895c-.327.482-1.113.937-2.36 1.364-1.246.426-2.5.647-3.76.66-1.473.028-2.822-.15-4.047-.536-1.225-.386-2.234-.896-3.027-1.53-.794-.632-1.466-1.362-2.02-2.19-.55-.825-.944-1.65-1.178-2.477-.234-.826-.35-1.638-.35-2.437V23.776h-3.57v-4.44c1.02-.36 1.933-.838 2.74-1.436.808-.6 1.453-1.22 1.934-1.86.48-.64.892-1.342 1.232-2.107.34-.764.58-1.445.722-2.045.142-.6.248-1.208.32-1.828.013-.068.045-.127.094-.175.05-.048.103-.073.16-.073h5.184v8.76h7.075v5.204H29.99v10.7c0 .413.047.8.14 1.157.09.358.25.72.477 1.084.226.365.577.65 1.052.858.473.206 1.05.303 1.73.29 1.105-.03 2.054-.228 2.848-.6" fill="#231F20"></path> </g> </svg> 