<?xml version="1.0" encoding="UTF-8"?> <svg xmlns="http://www.w3.org/2000/svg" width="54" height="54" viewBox="0 0 54 54"> <g fill="none" fill-rule="evenodd"> <rect stroke-width="3" width="50" height="50" rx="6" stroke="#231F20" stroke-linecap="round" stroke-linejoin="round" transform="translate(2 2)"></rect> <path d="M45.75 14.9c-1.02 1.516-2.25 2.807-3.694 3.874.015.216.023.54.023.974 0 2.01-.29 4.016-.868 6.02-.578 2-1.456 3.922-2.633 5.762-1.18 1.84-2.582 3.468-4.21 4.882-1.626 1.415-3.587 2.544-5.882 3.386-2.295.843-4.75 1.264-7.365 1.264-4.12 0-7.89-1.12-11.31-3.362.532.062 1.124.092 1.778.092 3.422 0 6.47-1.067 9.145-3.2-1.596-.03-3.025-.53-4.287-1.496s-2.128-2.2-2.6-3.7c.502.078.966.116 1.392.116.653 0 1.3-.084 1.938-.255-1.703-.355-3.113-1.218-4.23-2.586-1.117-1.367-1.676-2.956-1.676-4.765v-.093c1.034.588 2.143.905 3.33.95-1.004-.68-1.802-1.568-2.395-2.666-.593-1.098-.89-2.288-.89-3.572 0-1.36.335-2.62 1.004-3.78 1.84 2.304 4.08 4.147 6.716 5.53 2.638 1.385 5.462 2.154 8.472 2.31-.122-.59-.183-1.16-.183-1.718 0-2.07.718-3.838 2.155-5.3 1.437-1.46 3.173-2.19 5.21-2.19 2.13 0 3.923.788 5.382 2.365 1.657-.324 3.215-.927 4.675-1.808-.563 1.778-1.642 3.154-3.238 4.128 1.412-.154 2.826-.54 4.24-1.16" fill="#231F20"></path> </g> </svg> 